<svg xmlns="http://www.w3.org/2000/svg" viewBox="0 0 1280 720" lang="zh-CN" font-family="Microsoft YaHei, Segoe UI, sans-serif" data-pptx-page-role="cover">
  <defs>
    <filter id="glow" x="-60%" y="-60%" width="220%" height="220%"><feGaussianBlur stdDeviation="7" result="b" /><feMerge><feMergeNode in="b" /><feMergeNode in="SourceGraphic" /></feMerge></filter>
  </defs>
  <rect x="0" y="0" width="1280" height="720" fill="#0B1220" id="bg" data-pptx-role="background" />
  <path d="M80 0V720M160 0V720M240 0V720M320 0V720M400 0V720M480 0V720M560 0V720M640 0V720M720 0V720M800 0V720M880 0V720M960 0V720M1040 0V720M1120 0V720M1200 0V720M0 90H1280M0 180H1280M0 270H1280M0 360H1280M0 450H1280M0 540H1280M0 630H1280" fill="none" id="bg-grid" data-pptx-role="decoration" stroke="#17293F" stroke-width="1" opacity="0.5" />
  <path d="M0 452L1280 262" fill="none" id="cover-trace" data-pptx-role="decoration" stroke="#16324D" stroke-width="2" />
  <circle cx="1032" cy="226" r="5" fill="#A3E635" id="cover-node-a" data-pptx-role="decoration" filter="url(#glow)" />
  <circle cx="902" cy="296" r="4" fill="#22D3EE" id="cover-node-b" data-pptx-role="decoration" filter="url(#glow)" />
  <rect x="0" y="0" width="6" height="720" fill="#A3E635" id="cover-edge" data-pptx-role="decoration" opacity="0.9" />
  <g id="cover-kicker" data-pptx-bounds="90 92 900 40">
  <text x="96" y="124" font-size="18" fill="#22D3EE" font-family="Consolas, monospace" letter-spacing="4">//  UMAMI PEPTIDE SCREENING   ·   本机 venv 生成</text>
  </g>
  <g id="cover-title" data-pptx-bounds="70 180 1150 250" font-size="92" font-weight="700">
  <text x="94" y="292" fill="#F1F5F9">机器学习</text>
  <text x="94" y="392" fill="#A3E635">筛选鲜味肽</text>
  </g>
  <g id="cover-subtitle" data-pptx-bounds="92 430 1010 58">
  <text x="98" y="466" font-size="26" fill="#7DD3FC">序列 → 特征 → 模型打分 → 合成 → 味觉验证</text>
  </g>
  <g id="cover-rule" data-pptx-bounds="96 494 300 12">
  <rect x="98" y="498" width="300" height="2" fill="#A3E635" opacity="0.7" />
  </g>
  <g id="cover-kpis" data-pptx-bounds="94 516 1006 118">
  <rect x="98" y="528" width="250" height="92" fill="#121C2E" stroke="#1E3A5F" stroke-width="1" rx="12" />
  <text x="122" y="570" font-size="26" fill="#A3E635" font-weight="700">12 页</text>
  <text x="122" y="600" font-size="15" fill="#94A3B8">方法 · 流程 · 复现</text>
  <rect x="372" y="528" width="250" height="92" fill="#121C2E" stroke="#1E3A5F" stroke-width="1" rx="12" />
  <text x="396" y="570" font-size="26" fill="#22D3EE" font-weight="700">5 步</text>
  <text x="396" y="600" font-size="15" fill="#94A3B8">候选 → 湿实验闭环</text>
  <rect x="646" y="528" width="250" height="92" fill="#121C2E" stroke="#1E3A5F" stroke-width="1" rx="12" />
  <text x="670" y="570" font-size="26" fill="#FBBF24" font-weight="700">全示例</text>
  <text x="670" y="600" font-size="15" fill="#94A3B8">数字是占位，可替换</text>
  </g>
  <g id="cover-meta" data-pptx-bounds="94 638 1010 36">
  <text x="98" y="664" font-size="16" fill="#64748B" font-family="Consolas, monospace">本机生成 ·  ppt-master  ·  venv python 3.11   ·  LAPTOP-R77M5D6M</text>
  </g>
</svg>
