<?xml version="1.0" encoding="UTF-8" ?>
<!DOCTYPE svg PUBLIC "-//W3C//DTD SVG 1.1//EN" "http://www.w3.org/Graphics/SVG/1.1/DTD/svg11.dtd">
<svg width="1344pt" height="768pt" viewBox="0 0 1344 768" version="1.1" xmlns="http://www.w3.org/2000/svg">
<path fill="#fafafa" stroke="#fafafa" stroke-width="0.09375" opacity="1.00" d=" M 0.00 0.00 L 1073.24 0.00 C 1074.19 13.15 1079.87 25.68 1088.36 35.69 C 1095.58 43.77 1104.85 49.77 1114.60 54.38 C 1119.07 56.52 1123.63 58.59 1127.64 61.56 C 1080.10 61.08 1032.54 61.39 985.00 61.30 C 980.01 61.25 974.81 62.60 971.20 66.21 C 963.95 73.31 956.91 80.63 950.19 88.23 C 946.59 92.31 942.14 95.46 937.67 98.51 C 923.45 98.48 909.23 98.56 895.01 98.49 C 892.77 98.19 890.32 99.48 890.09 101.89 C 889.36 106.87 890.10 111.92 890.14 116.93 C 890.20 135.60 890.22 154.28 890.17 172.96 C 890.15 179.97 889.02 187.12 890.59 194.05 C 891.81 194.33 893.04 194.63 894.28 194.93 C 894.64 196.72 894.67 198.68 895.71 200.27 C 897.14 202.19 899.84 201.25 901.89 201.52 C 902.45 203.68 903.10 205.83 903.89 207.93 C 904.32 209.39 905.49 210.77 907.18 210.51 C 926.53 210.64 945.90 210.52 965.26 210.55 C 965.89 209.55 966.51 208.53 967.11 207.49 C 968.82 202.42 967.64 196.96 968.05 191.72 C 969.89 192.67 971.80 193.72 973.96 193.63 C 1079.99 193.93 1186.04 193.79 1292.07 193.73 C 1298.96 193.98 1306.37 191.00 1309.74 184.70 C 1313.69 178.30 1312.66 170.53 1312.53 163.39 C 1312.26 151.43 1312.19 139.46 1311.86 127.50 C 1315.65 132.20 1318.05 137.78 1320.85 143.09 C 1324.66 150.47 1326.61 158.72 1326.86 167.01 C 1327.20 180.96 1325.71 195.06 1328.26 208.89 C 1330.20 221.27 1335.16 233.48 1344.00 242.55 L 1344.00 620.63 C 1333.14 622.04 1322.36 624.89 1312.69 630.11 C 1312.63 606.06 1312.76 582.02 1312.74 557.97 C 1313.66 548.48 1305.66 538.94 1296.01 538.84 C 1196.03 538.76 1096.05 538.94 996.07 538.84 C 988.85 538.90 982.44 542.69 975.75 544.90 C 919.10 565.51 862.61 586.59 805.90 607.05 C 800.98 609.03 795.41 609.83 791.17 613.19 C 785.85 617.94 786.45 626.83 791.30 631.70 C 794.77 635.39 799.93 636.47 804.61 637.76 C 831.94 644.92 859.58 650.81 887.11 657.15 C 920.08 664.76 953.19 671.83 986.02 680.06 C 992.56 681.74 999.37 681.02 1006.05 681.20 C 1045.51 681.51 1084.97 681.22 1124.43 681.40 C 1118.38 682.85 1112.16 682.29 1106.02 682.30 C 1095.67 682.01 1085.36 683.08 1075.02 682.79 C 1057.02 682.70 1039.03 682.82 1021.04 682.80 C 1017.52 682.83 1013.81 682.88 1010.64 684.62 C 989.16 696.83 969.64 712.95 955.28 733.21 C 947.26 743.70 941.02 755.47 936.83 768.00 L 164.43 768.00 C 165.94 755.69 162.75 742.68 155.08 732.85 C 149.01 725.83 142.16 718.81 133.10 715.88 C 121.07 712.34 108.37 712.74 96.05 711.02 C 88.75 709.81 81.66 706.88 75.93 702.15 C 71.01 697.86 67.66 692.11 64.89 686.28 C 64.16 685.04 63.70 683.51 62.48 682.67 C 59.28 682.06 55.98 682.07 52.84 681.18 C 135.22 681.49 217.61 681.24 299.99 681.34 C 318.99 681.22 338.03 681.65 357.01 681.09 C 375.98 676.46 395.06 672.31 414.08 667.92 C 455.02 658.21 496.05 648.92 536.96 639.10 C 542.03 638.02 546.82 634.97 549.28 630.32 C 551.75 625.65 551.57 619.22 547.66 615.38 C 544.45 611.95 539.64 611.06 535.45 609.41 C 512.75 600.99 490.26 592.02 467.72 583.18 C 430.24 568.72 392.96 553.75 355.41 539.50 C 343.32 538.55 331.11 539.47 318.98 538.95 C 231.33 538.77 143.67 538.93 56.02 538.88 C 46.54 538.38 37.21 546.31 37.14 555.99 C 37.08 579.70 37.11 603.41 37.12 627.13 C 32.18 622.93 27.52 618.04 21.30 615.78 C 14.48 613.38 7.17 612.94 0.00 612.93 L 0.00 0.00 Z" />
<path fill="#ebebeb" stroke="#ebebeb" stroke-width="0.09375" opacity="1.00" d=" M 1073.24 0.00 L 1344.00 0.00 L 1344.00 242.55 C 1335.16 233.48 1330.20 221.27 1328.26 208.89 C 1325.71 195.06 1327.20 180.96 1326.86 167.01 C 1326.61 158.72 1324.66 150.47 1320.85 143.09 C 1318.05 137.78 1315.65 132.20 1311.86 127.50 C 1311.75 116.67 1311.76 105.84 1311.48 95.01 C 1311.21 88.30 1311.67 81.43 1310.07 74.85 C 1307.85 66.26 1298.39 61.42 1290.00 61.93 C 1267.75 61.69 1245.50 61.81 1223.25 61.52 C 1218.79 61.31 1214.34 61.45 1209.90 61.70 C 1202.73 62.10 1195.57 60.89 1188.41 61.51 C 1181.06 62.10 1173.72 61.12 1166.37 61.41 C 1153.46 61.75 1140.55 61.46 1127.64 61.56 C 1123.63 58.59 1119.07 56.52 1114.60 54.38 C 1104.85 49.77 1095.58 43.77 1088.36 35.69 C 1079.87 25.68 1074.19 13.15 1073.24 0.00 Z" />
<path fill="#000000" stroke="#000000" stroke-width="0.09375" opacity="1.00" d=" M 36.87 79.98 C 36.71 70.27 45.17 61.19 55.00 61.44 C 162.00 61.44 269.00 61.40 375.99 61.42 C 380.00 61.51 384.06 61.11 388.04 61.79 C 394.89 63.35 399.55 69.02 404.06 73.97 C 420.89 93.34 440.73 110.53 463.83 121.99 C 479.03 129.77 496.10 133.24 513.05 134.22 C 533.55 135.44 553.37 141.77 571.98 150.18 C 585.82 156.78 598.87 165.36 609.44 176.55 C 622.30 190.54 631.71 207.83 635.56 226.50 C 662.89 226.35 690.22 226.41 717.53 226.79 C 721.28 211.63 728.38 197.31 737.87 184.93 C 748.11 172.35 760.65 161.56 774.98 153.88 C 785.08 148.31 796.00 144.40 807.01 141.05 C 816.20 138.40 825.55 136.03 835.13 135.38 C 847.11 134.33 859.29 134.67 871.05 131.73 C 876.88 130.40 882.44 128.12 888.18 126.44 C 888.48 142.19 888.15 157.94 888.28 173.69 C 866.61 170.19 844.23 170.58 822.86 175.79 C 802.48 180.22 782.66 189.91 768.71 205.71 C 762.87 212.11 759.33 220.14 757.18 228.45 C 791.30 229.38 825.41 232.23 859.08 237.95 C 867.73 239.52 876.46 241.48 884.45 245.24 C 887.54 246.88 891.81 250.09 889.96 254.08 C 886.73 261.80 882.59 269.09 878.81 276.55 C 877.66 278.71 876.65 281.13 874.57 282.57 C 872.47 283.94 870.04 284.68 867.74 285.59 C 863.25 293.89 858.94 302.28 854.38 310.53 C 844.91 327.33 836.19 344.54 826.41 361.16 C 820.28 372.35 813.95 383.45 808.26 394.88 C 806.55 397.95 805.07 401.14 803.37 404.20 C 794.65 420.22 785.92 436.23 777.00 452.14 C 770.52 464.46 763.20 476.32 756.91 488.75 C 754.05 494.52 751.32 500.43 749.84 506.72 C 747.74 517.24 749.35 528.05 748.57 538.65 C 743.93 544.55 735.95 545.96 729.07 547.73 C 735.46 562.57 745.95 575.50 758.99 585.02 C 761.39 582.25 763.74 579.44 766.08 576.62 C 767.31 587.23 769.39 597.71 770.86 608.28 C 759.97 608.50 749.08 608.71 738.20 609.39 C 740.58 606.32 743.07 603.35 745.49 600.32 C 739.60 595.00 733.59 589.76 728.44 583.70 C 719.79 573.95 713.63 562.32 708.21 550.55 C 700.99 551.44 693.72 551.63 686.46 551.57 C 686.51 561.49 686.50 571.42 686.58 581.35 C 690.32 581.28 694.05 580.96 697.79 580.71 C 690.65 589.20 683.61 597.78 676.63 606.41 C 669.04 598.53 662.57 589.63 655.46 581.31 C 659.04 581.45 662.62 581.55 666.20 581.59 C 666.23 571.61 666.09 561.63 666.24 551.64 C 659.05 551.73 651.88 551.13 644.75 550.25 C 641.64 557.40 638.24 564.47 634.02 571.05 C 626.82 582.18 617.13 591.44 607.12 600.02 C 609.43 603.29 611.99 606.35 614.33 609.60 C 603.57 608.96 592.81 608.23 582.03 608.27 C 583.56 597.78 585.58 587.36 586.85 576.84 C 589.54 579.55 591.86 582.61 594.47 585.41 C 606.68 574.92 617.30 562.32 624.01 547.58 C 616.79 545.47 607.53 544.49 603.54 537.20 C 604.58 529.17 604.29 521.02 603.81 512.96 C 603.49 504.39 600.29 496.22 596.24 488.76 C 580.51 460.18 564.82 431.58 548.97 403.08 C 547.64 400.74 546.43 398.36 545.18 395.99 C 530.15 367.40 514.47 339.16 498.96 310.83 C 496.99 307.21 495.07 303.57 493.17 299.92 C 490.41 295.30 488.48 290.13 485.19 285.86 C 482.32 284.44 478.91 283.82 476.67 281.38 C 475.22 279.55 474.54 277.27 473.60 275.17 C 470.88 268.54 467.39 262.27 464.09 255.92 C 462.81 253.66 462.54 250.51 464.38 248.48 C 466.97 245.46 470.81 243.96 474.46 242.63 C 484.84 239.21 495.72 237.69 506.45 235.83 C 536.35 231.49 566.54 229.40 596.72 228.26 C 593.94 214.92 585.28 203.55 574.54 195.49 C 556.14 181.13 533.07 173.87 510.07 171.52 C 488.44 169.25 466.69 172.24 445.56 176.84 C 429.92 180.26 414.41 184.21 398.89 188.16 C 390.34 190.28 381.91 193.58 372.97 193.46 C 267.65 193.49 162.33 193.51 57.01 193.48 C 46.40 194.13 36.60 184.68 36.88 174.04 C 36.85 142.69 36.83 111.33 36.87 79.98 Z" />
<path fill="#e5e5e5" stroke="#e5e5e5" stroke-width="0.09375" opacity="1.00" d=" M 971.20 66.21 C 974.81 62.60 980.01 61.25 985.00 61.30 C 1032.54 61.39 1080.10 61.08 1127.64 61.56 C 1140.55 61.46 1153.46 61.75 1166.37 61.41 C 1173.72 61.12 1181.06 62.10 1188.41 61.51 C 1195.57 60.89 1202.73 62.10 1209.90 61.70 C 1214.34 61.45 1218.79 61.31 1223.25 61.52 C 1245.50 61.81 1267.75 61.69 1290.00 61.93 C 1298.39 61.42 1307.85 66.26 1310.07 74.85 C 1311.67 81.43 1311.21 88.30 1311.48 95.01 C 1311.76 105.84 1311.75 116.67 1311.86 127.50 C 1312.19 139.46 1312.26 151.43 1312.53 163.39 C 1312.66 170.53 1313.69 178.30 1309.74 184.70 C 1306.37 191.00 1298.96 193.98 1292.07 193.73 C 1186.04 193.79 1079.99 193.93 973.96 193.63 C 971.80 193.72 969.89 192.67 968.05 191.72 C 967.64 196.96 968.82 202.42 967.11 207.49 C 966.42 179.37 967.03 151.22 966.68 123.09 C 966.99 120.92 965.31 118.88 963.04 119.26 C 944.40 119.28 925.75 119.12 907.12 119.45 C 904.12 119.27 903.76 122.81 903.84 125.02 C 903.78 152.66 903.82 180.30 903.89 207.93 C 903.10 205.83 902.45 203.68 901.89 201.52 C 901.52 175.68 901.84 149.80 901.76 123.95 C 901.30 120.77 903.40 116.99 906.99 117.30 C 924.11 117.24 941.23 117.32 958.35 117.14 C 958.15 113.51 959.10 109.41 957.01 106.17 C 955.78 104.20 953.19 104.49 951.24 104.02 C 950.46 102.26 950.48 99.46 948.22 98.88 C 944.74 98.26 941.18 98.62 937.67 98.51 C 942.14 95.46 946.59 92.31 950.19 88.23 C 956.91 80.63 963.95 73.31 971.20 66.21 Z" />
<path fill="#c4c4c6" stroke="#c4c4c6" stroke-width="0.09375" opacity="1.00" d=" M 990.60 72.71 C 994.18 69.26 999.51 70.55 1003.99 70.31 C 1094.33 70.25 1184.68 70.46 1275.03 70.34 C 1279.64 70.58 1284.85 69.31 1288.91 72.13 C 1293.23 74.81 1295.75 79.91 1295.50 84.96 C 1295.41 113.68 1295.47 142.40 1295.45 171.12 C 1295.35 174.54 1294.13 179.10 1290.28 179.88 C 1292.34 176.99 1293.89 173.62 1293.66 169.98 C 1293.68 141.65 1293.61 113.31 1293.69 84.97 C 1294.31 78.80 1289.48 72.18 1283.02 72.23 C 1188.01 72.24 1092.99 72.25 997.98 72.25 C 991.61 71.71 986.03 77.79 986.55 84.04 C 986.74 113.00 986.56 141.97 986.63 170.93 C 986.23 177.05 991.83 182.73 997.98 182.34 C 1089.67 182.37 1181.37 182.34 1273.06 182.33 C 1278.78 182.17 1284.99 183.37 1290.11 180.09 C 1288.71 183.22 1285.07 184.09 1281.95 184.17 C 1188.95 184.07 1095.94 184.43 1002.94 184.20 C 998.43 184.16 993.46 184.30 989.70 181.40 C 986.06 178.89 984.38 174.40 984.50 170.09 C 984.49 141.36 984.63 112.63 984.49 83.91 C 984.12 79.30 987.49 75.64 990.60 72.71 Z" />
<path fill="#fbfbfb" stroke="#fbfbfb" stroke-width="0.09375" opacity="1.00" d=" M 58.90 71.53 C 60.54 70.93 62.23 70.43 64.00 70.52 C 156.66 70.54 249.33 70.46 341.99 70.48 C 345.65 70.53 349.35 70.26 352.97 70.91 C 353.95 71.33 354.95 71.72 355.97 72.08 C 357.65 73.57 359.38 75.05 360.59 76.98 C 360.62 77.22 360.67 77.71 360.70 77.96 C 362.83 83.12 361.30 89.05 361.67 94.52 L 362.38 94.42 L 362.24 96.16 C 362.07 96.99 361.75 98.64 361.59 99.46 L 362.35 99.49 C 362.27 111.84 362.25 124.19 362.37 136.55 L 360.22 137.02 L 362.37 137.41 C 362.26 141.47 362.25 145.53 362.41 149.58 L 361.65 149.39 L 361.67 151.67 L 362.43 151.39 C 362.21 158.74 362.35 166.09 362.36 173.44 L 361.84 173.47 C 361.62 179.40 355.84 184.18 350.00 183.69 C 254.67 183.72 159.33 183.69 64.00 183.70 C 58.48 184.21 53.64 180.05 52.02 174.99 C 51.27 171.06 51.66 167.04 51.58 163.07 C 51.58 135.56 51.66 108.06 51.62 80.55 L 52.21 80.51 C 52.41 79.33 52.65 78.17 52.92 77.01 C 54.64 74.92 56.42 72.75 58.90 71.53 Z" />
<path fill="#000000" stroke="#000000" stroke-width="0.09375" opacity="1.00" d=" M 986.55 84.04 C 986.03 77.79 991.61 71.71 997.98 72.25 C 1092.99 72.25 1188.01 72.24 1283.02 72.23 C 1289.48 72.18 1294.31 78.80 1293.69 84.97 C 1293.61 113.31 1293.68 141.65 1293.66 169.98 C 1293.89 173.62 1292.34 176.99 1290.28 179.88 L 1290.11 180.09 C 1284.99 183.37 1278.78 182.17 1273.06 182.33 C 1181.37 182.34 1089.67 182.37 997.98 182.34 C 991.83 182.73 986.23 177.05 986.63 170.93 C 986.56 141.97 986.74 113.00 986.55 84.04 Z" />
<path fill="#000000" stroke="#000000" stroke-width="0.09375" opacity="1.00" d=" M 890.09 101.89 C 890.32 99.48 892.77 98.19 895.01 98.49 C 909.23 98.56 923.45 98.48 937.67 98.51 C 941.18 98.62 944.74 98.26 948.22 98.88 C 950.48 99.46 950.46 102.26 951.24 104.02 C 953.19 104.49 955.78 104.20 957.01 106.17 C 959.10 109.41 958.15 113.51 958.35 117.14 C 941.23 117.32 924.11 117.24 906.99 117.30 C 903.40 116.99 901.30 120.77 901.76 123.95 C 901.84 149.80 901.52 175.68 901.89 201.52 C 899.84 201.25 897.14 202.19 895.71 200.27 C 894.67 198.68 894.64 196.72 894.28 194.93 C 893.04 194.63 891.81 194.33 890.59 194.05 C 889.02 187.12 890.15 179.97 890.17 172.96 C 890.22 154.28 890.20 135.60 890.14 116.93 C 890.10 111.92 889.36 106.87 890.09 101.89 Z" />
<path fill="#010001" stroke="#010001" stroke-width="0.09375" opacity="1.00" d=" M 903.84 125.02 C 903.76 122.81 904.12 119.27 907.12 119.45 C 925.75 119.12 944.40 119.28 963.04 119.26 C 965.31 118.88 966.99 120.92 966.68 123.09 C 967.03 151.22 966.42 179.37 967.11 207.49 C 966.51 208.53 965.89 209.55 965.26 210.55 C 945.90 210.52 926.53 210.64 907.18 210.51 C 905.49 210.77 904.32 209.39 903.89 207.93 C 903.82 180.30 903.78 152.66 903.84 125.02 Z" />
<path fill="#ebe8e8" stroke="#ebe8e8" stroke-width="0.09375" opacity="1.00" d=" M 911.12 131.69 C 911.29 131.17 911.62 130.14 911.79 129.63 C 927.24 129.56 942.70 129.54 958.15 129.69 C 958.38 130.18 958.85 131.17 959.08 131.67 C 943.09 131.81 927.11 131.68 911.12 131.69 Z" />
<path fill="#f0f0ef" stroke="#f0f0ef" stroke-width="0.09375" opacity="1.00" d=" M 910.91 138.69 C 911.13 138.23 911.58 137.30 911.80 136.83 C 927.22 136.57 942.66 136.59 958.08 136.81 C 958.35 137.27 958.89 138.19 959.16 138.64 C 943.08 138.92 926.99 138.76 910.91 138.69 Z" />
<path fill="#d1ccca" stroke="#d1ccca" stroke-width="0.09375" opacity="1.00" d=" M 911.24 144.26 C 925.43 143.43 939.69 144.11 953.92 143.87 C 955.83 144.10 959.18 143.14 959.12 146.11 C 945.42 146.36 931.71 146.19 918.01 146.20 C 915.73 146.18 913.42 146.37 911.18 145.86 C 911.20 145.46 911.23 144.66 911.24 144.26 Z" />
<path fill="#ebe8e8" stroke="#ebe8e8" stroke-width="0.09375" opacity="1.00" d=" M 911.42 151.47 C 927.22 151.05 943.05 151.31 958.86 151.45 C 958.74 151.92 958.50 152.88 958.39 153.35 C 943.60 153.49 928.80 153.29 914.01 153.39 C 912.69 153.51 910.44 153.34 911.42 151.47 Z" />
<path fill="#f6f6f6" stroke="#f6f6f6" stroke-width="0.09375" opacity="1.00" d=" M 911.16 158.42 C 926.93 158.38 942.72 158.25 958.50 158.47 C 958.64 158.91 958.92 159.78 959.06 160.21 C 944.72 160.83 930.33 160.12 915.97 160.49 C 914.17 160.30 910.90 161.33 911.16 158.42 Z" />
<path fill="#e6dfd8" stroke="#e6dfd8" stroke-width="0.09375" opacity="1.00" d=" M 934.66 163.76 C 937.51 163.40 938.52 167.67 935.62 168.50 C 932.31 169.74 930.80 164.01 934.66 163.76 Z" />
<path fill="#eae9e9" stroke="#eae9e9" stroke-width="0.09375" opacity="1.00" d=" M 911.65 170.91 C 916.63 170.84 921.62 170.78 926.60 170.95 C 926.60 173.70 926.59 176.46 926.57 179.22 C 921.58 179.21 916.59 179.22 911.61 179.19 C 911.54 176.43 911.54 173.67 911.65 170.91 Z" />
<path fill="#e9e9e8" stroke="#e9e9e8" stroke-width="0.09375" opacity="1.00" d=" M 928.48 171.14 C 933.13 170.76 937.82 170.70 942.48 171.22 C 942.46 173.89 942.47 176.56 942.47 179.23 C 937.84 179.19 933.21 179.07 928.59 179.17 C 928.50 176.49 928.49 173.81 928.48 171.14 Z" />
<path fill="#f0f0ef" stroke="#f0f0ef" stroke-width="0.09375" opacity="1.00" d=" M 944.26 170.82 C 949.02 170.97 953.93 170.11 958.60 171.41 C 958.57 174.00 958.55 176.59 958.44 179.18 C 953.70 179.23 948.97 179.27 944.24 179.20 C 944.27 176.40 944.27 173.61 944.26 170.82 Z" />
<path fill="#ebe8e8" stroke="#ebe8e8" stroke-width="0.09375" opacity="1.00" d=" M 933.56 181.76 C 936.50 180.37 939.21 184.47 936.59 186.48 C 933.44 188.87 929.65 183.23 933.56 181.76 Z" />
<path fill="#efefef" stroke="#efefef" stroke-width="0.09375" opacity="1.00" d=" M 911.46 189.35 C 916.51 189.27 921.56 189.21 926.62 189.25 C 926.55 192.12 926.52 194.99 926.55 197.86 C 921.55 198.24 916.47 198.53 911.52 197.66 C 911.47 194.89 911.44 192.12 911.46 189.35 Z" />
<path fill="#ebecec" stroke="#ebecec" stroke-width="0.09375" opacity="1.00" d=" M 928.13 189.32 C 932.89 189.43 937.65 189.34 942.41 189.33 C 942.33 192.15 942.29 194.97 942.29 197.80 C 937.60 197.91 932.91 197.84 928.23 197.84 C 928.20 195.00 928.17 192.16 928.13 189.32 Z" />
<path fill="#eaebec" stroke="#eaebec" stroke-width="0.09375" opacity="1.00" d=" M 944.28 189.21 C 949.10 189.21 953.92 189.18 958.75 189.26 C 958.75 192.07 958.76 194.89 958.73 197.71 C 953.94 198.28 949.14 197.88 944.35 197.82 C 944.32 194.95 944.31 192.08 944.28 189.21 Z" />
<path fill="#e4e4e4" stroke="#e4e4e4" stroke-width="0.09375" opacity="1.00" d=" M 622.97 263.09 C 631.50 253.89 639.95 244.61 648.85 235.76 C 667.57 235.66 686.30 235.59 705.02 235.80 C 714.07 244.72 722.71 254.03 731.86 262.86 C 742.88 254.58 753.69 246.02 764.59 237.58 C 794.92 239.97 825.64 240.17 855.47 246.81 C 859.88 248.14 865.33 248.69 868.17 252.74 C 861.96 256.24 854.77 257.17 847.88 258.50 C 826.36 262.02 804.59 263.65 782.84 264.93 C 729.62 268.10 676.27 267.83 622.98 267.16 C 588.92 265.86 554.78 264.76 520.90 260.75 C 511.83 259.56 502.76 258.23 493.87 256.03 C 490.71 255.20 487.41 254.34 484.94 252.09 C 491.28 247.35 499.46 246.62 506.98 245.03 C 526.82 241.89 546.88 240.29 566.91 238.85 C 573.46 238.36 580.05 238.45 586.59 237.68 C 598.95 245.81 610.60 254.96 622.97 263.09 Z" />
<path fill="#e4e4e4" stroke="#e4e4e4" stroke-width="0.09375" opacity="1.00" d=" M 814.86 295.33 C 832.08 293.24 849.39 291.06 866.12 286.28 C 861.74 292.47 859.01 299.64 855.15 306.15 C 847.42 320.54 839.30 334.73 831.80 349.25 L 830.99 348.54 C 829.55 347.24 828.06 346.02 826.58 344.79 C 826.85 344.47 827.40 343.83 827.67 343.51 C 825.73 342.45 823.49 342.56 821.37 342.59 C 821.79 341.70 822.22 340.80 822.66 339.92 C 821.09 340.50 819.52 341.10 817.95 341.69 C 818.36 340.72 818.79 339.75 819.23 338.79 C 818.51 337.53 817.79 336.27 817.09 335.01 C 818.01 334.27 818.94 333.53 819.88 332.79 C 818.93 332.27 817.99 331.77 817.06 331.27 C 819.19 330.90 821.34 330.49 823.44 329.91 C 821.45 329.62 819.46 329.44 817.48 329.29 C 818.44 328.67 819.41 328.05 820.39 327.44 C 819.59 326.23 818.75 325.04 818.11 323.76 C 818.86 322.48 819.88 321.38 820.60 320.08 C 821.19 318.27 819.28 317.19 818.31 316.06 C 818.69 313.16 820.98 311.87 823.59 311.25 C 821.79 309.26 819.77 307.41 818.40 305.09 C 818.55 303.77 818.92 302.49 819.25 301.21 C 818.46 300.02 817.67 298.84 816.89 297.66 C 817.48 297.51 818.66 297.20 819.25 297.04 C 817.79 296.45 816.32 295.86 814.86 295.33 Z" />
<path fill="#e6e6e6" stroke="#e6e6e6" stroke-width="0.09375" opacity="1.00" d=" M 487.91 287.04 C 519.71 294.49 552.37 297.18 584.92 298.88 L 583.95 299.25 C 580.23 300.47 576.88 302.50 573.80 304.87 C 570.31 308.03 564.48 305.09 561.52 309.20 C 557.20 308.94 553.01 311.06 550.02 314.06 C 546.94 317.13 543.75 320.09 540.91 323.39 C 542.25 325.39 543.60 327.39 544.99 329.36 C 544.62 332.06 544.12 334.73 543.62 337.41 C 543.66 337.73 543.74 338.37 543.78 338.69 C 544.94 337.85 546.12 337.02 547.29 336.18 C 547.80 337.74 548.32 339.30 548.83 340.87 C 546.66 341.97 544.66 343.37 542.79 344.92 C 541.59 345.37 540.37 345.80 539.18 346.23 C 533.78 347.85 528.04 349.50 524.12 353.81 C 517.38 340.74 509.69 328.17 502.89 315.13 C 500.23 310.12 497.57 305.11 494.88 300.12 C 494.62 299.63 494.09 298.65 493.82 298.16 C 491.86 294.44 489.91 290.73 487.91 287.04 Z" />
<path fill="#efefef" stroke="#efefef" stroke-width="0.09375" opacity="1.00" d=" M 723.70 300.78 C 754.14 300.23 784.55 298.15 814.86 295.33 C 816.32 295.86 817.79 296.45 819.25 297.04 C 818.66 297.20 817.48 297.51 816.89 297.66 C 817.67 298.84 818.46 300.02 819.25 301.21 C 818.92 302.49 818.55 303.77 818.40 305.09 C 819.77 307.41 821.79 309.26 823.59 311.25 C 820.98 311.87 818.69 313.16 818.31 316.06 C 819.28 317.19 821.19 318.27 820.60 320.08 C 819.88 321.38 818.86 322.48 818.11 323.76 C 818.75 325.04 819.59 326.23 820.39 327.44 C 819.41 328.05 818.44 328.67 817.48 329.29 C 819.46 329.44 821.45 329.62 823.44 329.91 C 821.34 330.49 819.19 330.90 817.06 331.27 C 817.99 331.77 818.93 332.27 819.88 332.79 C 818.94 333.53 818.01 334.27 817.09 335.01 C 817.79 336.27 818.51 337.53 819.23 338.79 C 818.79 339.75 818.36 340.72 817.95 341.69 C 819.52 341.10 821.09 340.50 822.66 339.92 C 822.22 340.80 821.79 341.70 821.37 342.59 C 823.49 342.56 825.73 342.45 827.67 343.51 C 827.40 343.83 826.85 344.47 826.58 344.79 C 828.06 346.02 829.55 347.24 830.99 348.54 L 831.71 349.66 C 830.52 351.13 829.55 352.77 829.03 354.61 C 827.94 352.88 826.66 351.19 824.79 350.27 C 817.67 346.43 809.67 344.71 801.82 343.07 C 798.20 342.27 794.55 341.60 790.89 341.08 C 783.91 339.93 776.92 338.87 769.90 338.11 C 756.37 336.25 742.70 335.87 729.11 334.83 C 724.83 334.54 720.55 334.47 716.27 334.36 C 718.79 323.18 721.34 312.00 723.70 300.78 Z" />
<path fill="#f3f3f2" stroke="#f3f3f2" stroke-width="0.09375" opacity="1.00" d=" M 573.80 304.87 C 576.88 302.50 580.23 300.47 583.95 299.25 C 599.33 299.59 614.71 300.60 630.10 301.19 C 632.31 312.33 635.14 323.33 637.46 334.45 C 629.33 334.64 621.20 335.21 613.13 336.15 C 607.01 336.24 600.93 336.87 594.84 337.32 C 577.34 338.52 559.91 341.07 542.79 344.92 C 544.66 343.37 546.66 341.97 548.83 340.87 C 548.32 339.30 547.80 337.74 547.29 336.18 C 546.12 337.02 544.94 337.85 543.78 338.69 C 543.74 338.37 543.66 337.73 543.62 337.41 C 544.12 334.73 544.62 332.06 544.99 329.36 C 543.60 327.39 542.25 325.39 540.91 323.39 C 543.75 320.09 546.94 317.13 550.02 314.06 C 553.01 311.06 557.20 308.94 561.52 309.20 C 564.48 305.09 570.31 308.03 573.80 304.87 Z" />
<path fill="#e5e5e5" stroke="#e5e5e5" stroke-width="0.09375" opacity="1.00" d=" M 37.86 324.98 C 39.41 317.12 46.82 310.72 54.92 310.90 C 202.93 310.61 350.95 310.96 498.96 310.83 C 514.47 339.16 530.15 367.40 545.18 395.99 C 524.81 395.45 504.43 395.73 484.05 395.67 C 341.36 395.67 198.68 395.72 56.00 395.62 C 46.08 395.33 37.07 386.35 37.39 376.31 C 37.46 363.12 37.31 349.92 37.41 336.73 C 37.40 332.81 37.17 328.86 37.86 324.98 Z" />
<path fill="#e6e6e6" stroke="#e6e6e6" stroke-width="0.09375" opacity="1.00" d=" M 826.41 361.16 C 836.19 344.54 844.91 327.33 854.38 310.53 C 879.25 311.29 904.13 310.68 929.01 310.91 C 940.05 310.97 951.12 310.49 962.16 311.02 C 959.02 319.56 954.62 327.56 950.70 335.75 C 945.31 347.85 938.97 359.49 933.66 371.63 C 929.61 379.43 926.37 387.63 922.10 395.31 C 889.08 395.47 856.05 395.35 823.03 395.33 C 818.10 395.29 813.13 395.83 808.26 394.88 C 813.95 383.45 820.28 372.35 826.41 361.16 Z" />
<path fill="#cfcfcf" stroke="#cfcfcf" stroke-width="0.09375" opacity="1.00" d=" M 967.16 313.22 C 967.77 312.15 968.36 310.51 969.95 310.79 C 1078.29 310.80 1186.65 310.75 1295.00 310.83 C 1304.31 310.21 1312.96 318.69 1312.65 327.97 C 1312.57 344.63 1312.53 361.30 1312.56 377.96 C 1312.94 387.30 1304.32 395.95 1295.00 395.64 C 1186.35 395.69 1077.71 395.61 969.06 395.60 C 955.37 395.39 941.65 395.87 927.98 395.19 C 940.92 367.81 954.09 340.54 967.16 313.22 Z" />
<path fill="#e6e6e6" stroke="#e6e6e6" stroke-width="0.09375" opacity="1.00" d=" M 615.74 336.79 C 623.03 336.48 630.33 336.31 637.59 335.61 C 640.41 347.92 642.59 360.37 645.50 372.67 C 619.27 371.94 593.07 370.14 567.05 366.74 C 556.91 365.37 546.82 363.49 536.96 360.74 C 532.74 359.54 528.45 358.07 525.17 355.04 C 528.97 349.49 536.22 348.36 542.26 346.68 C 559.98 342.37 578.16 340.50 596.24 338.45 C 597.45 338.29 598.68 338.08 599.89 337.82 C 605.18 337.54 610.48 337.45 615.74 336.79 Z" />
<path fill="#e5e5e5" stroke="#e5e5e5" stroke-width="0.09375" opacity="1.00" d=" M 707.87 372.50 C 710.56 360.17 713.52 347.89 715.95 335.51 C 735.73 335.98 755.45 337.69 775.11 339.90 C 779.75 340.73 784.45 341.25 789.12 341.93 C 791.09 342.39 793.10 342.65 795.12 342.89 C 801.16 344.17 807.24 345.25 813.20 346.87 C 815.18 347.55 817.17 348.21 819.17 348.84 C 822.54 350.20 825.94 351.92 827.95 355.11 C 824.65 358.84 819.56 359.82 815.00 361.14 C 794.10 366.42 772.53 368.07 751.13 370.08 C 736.74 371.34 722.30 371.95 707.87 372.50 Z" />
<path fill="#363836" stroke="#363836" stroke-width="0.09375" opacity="1.00" d=" M 542.79 344.92 C 559.91 341.07 577.34 338.52 594.84 337.32 C 595.19 337.61 595.89 338.17 596.24 338.45 C 578.16 340.50 559.98 342.37 542.26 346.68 C 541.49 346.57 539.95 346.34 539.18 346.23 C 540.37 345.80 541.59 345.37 542.79 344.92 Z" />
<path fill="#e4e4e5" stroke="#e4e4e5" stroke-width="0.09375" opacity="1.00" d=" M 758.19 406.94 C 774.11 405.19 790.16 402.83 805.30 397.36 C 803.34 401.34 801.16 405.21 799.13 409.17 C 797.46 412.16 795.81 415.16 794.18 418.18 C 793.92 418.67 793.39 419.64 793.13 420.13 C 791.46 423.13 789.82 426.15 788.18 429.17 C 782.82 439.11 776.87 448.72 771.88 458.84 C 768.12 456.31 764.10 454.12 759.64 453.15 L 759.51 452.84 C 759.36 452.51 759.07 451.86 758.93 451.54 C 757.28 449.33 755.05 447.07 755.98 444.08 C 755.12 443.90 754.30 443.74 753.47 443.57 C 753.85 443.12 754.60 442.23 754.98 441.78 C 754.38 440.72 753.77 439.66 753.19 438.61 C 754.06 437.42 754.83 436.10 755.96 435.11 C 757.91 434.17 760.12 433.94 762.23 433.47 C 762.71 430.46 764.62 428.15 766.58 425.97 C 767.23 423.39 765.22 421.06 764.29 418.79 C 765.12 418.51 765.97 418.24 766.83 417.98 C 764.05 416.85 762.04 414.67 761.26 411.77 C 760.38 411.57 759.50 411.36 758.64 411.17 C 758.49 409.84 758.34 408.50 758.21 407.17 L 758.19 406.94 Z" />
<path fill="#ededed" stroke="#ededed" stroke-width="0.09375" opacity="1.00" d=" M 547.71 397.80 C 580.59 408.31 615.42 409.38 649.59 411.29 C 649.94 414.40 650.41 417.49 650.80 420.60 C 651.69 429.00 652.76 437.38 653.75 445.77 C 638.40 446.32 623.04 447.53 607.86 449.99 C 599.60 451.61 590.82 452.60 583.54 457.15 C 582.73 457.66 581.94 458.19 581.15 458.73 C 577.74 451.69 573.62 445.01 569.83 438.17 C 564.96 429.10 559.95 420.10 554.90 411.13 C 552.52 406.68 550.28 402.15 547.71 397.80 Z" />
<path fill="#e7e7e7" stroke="#e7e7e7" stroke-width="0.09375" opacity="1.00" d=" M 548.97 403.08 C 564.82 431.58 580.51 460.18 596.24 488.76 C 570.86 489.66 545.46 488.99 520.07 489.19 C 364.72 488.98 209.35 489.42 54.01 489.12 C 45.15 487.94 37.33 480.04 37.35 470.89 C 37.19 454.59 37.20 438.28 37.36 421.99 C 37.40 412.36 46.21 403.29 56.05 404.10 C 171.69 404.10 287.33 403.89 402.96 404.02 C 448.65 404.13 494.33 404.03 540.01 403.92 C 543.01 404.02 546.04 403.85 548.97 403.08 Z" />
<path fill="#e7e7e7" stroke="#e7e7e7" stroke-width="0.09375" opacity="1.00" d=" M 777.00 452.14 C 785.92 436.23 794.65 420.22 803.37 404.20 C 816.90 403.40 830.47 404.33 844.02 404.02 C 864.37 404.00 884.72 404.14 905.07 404.04 C 910.71 404.03 916.36 403.73 922.00 404.10 C 915.70 416.60 910.26 429.52 903.95 442.02 C 896.63 456.79 890.36 472.06 882.82 486.72 C 881.81 489.68 878.45 489.16 875.98 489.22 C 836.29 488.87 796.59 489.74 756.91 488.75 C 763.20 476.32 770.52 464.46 777.00 452.14 Z" />
<path fill="#c8c8c8" stroke="#c8c8c8" stroke-width="0.09375" opacity="1.00" d=" M 928.05 404.11 C 1050.36 404.22 1172.68 404.10 1295.00 404.26 C 1304.18 403.56 1312.66 411.86 1312.63 420.96 C 1312.67 436.96 1312.52 452.95 1312.61 468.95 C 1312.59 471.90 1312.68 474.94 1311.68 477.77 C 1309.34 484.63 1302.21 489.45 1294.99 489.24 C 1184.34 489.23 1073.68 489.17 963.02 489.17 C 937.94 488.99 912.85 489.50 887.78 488.80 C 893.17 475.26 900.07 462.35 906.10 449.08 C 913.48 434.13 920.35 418.91 928.05 404.11 Z" />
<path fill="#f1f1f1" stroke="#f1f1f1" stroke-width="0.09375" opacity="1.00" d=" M 703.49 410.85 C 721.79 410.73 740.01 408.90 758.21 407.17 C 758.34 408.50 758.49 409.84 758.64 411.17 C 759.50 411.36 760.38 411.57 761.26 411.77 C 762.04 414.67 764.05 416.85 766.83 417.98 C 765.97 418.24 765.12 418.51 764.29 418.79 C 765.22 421.06 767.23 423.39 766.58 425.97 C 764.62 428.15 762.71 430.46 762.23 433.47 C 760.12 433.94 757.91 434.17 755.96 435.11 C 754.83 436.10 754.06 437.42 753.19 438.61 C 753.77 439.66 754.38 440.72 754.98 441.78 C 754.60 442.23 753.85 443.12 753.47 443.57 C 754.30 443.74 755.12 443.90 755.98 444.08 C 755.05 447.07 757.28 449.33 758.93 451.54 C 759.07 451.86 759.36 452.51 759.51 452.84 C 754.62 451.97 749.81 450.79 744.91 450.05 C 739.99 449.07 735.00 448.60 730.06 447.87 C 727.02 447.53 723.97 447.34 720.93 447.08 C 713.79 446.25 706.58 446.17 699.41 445.65 C 700.84 434.06 702.08 422.44 703.49 410.85 Z" />
<path fill="#302f2f" stroke="#302f2f" stroke-width="0.09375" opacity="1.00" d=" M 650.80 420.60 C 651.50 422.28 651.84 424.08 651.98 425.90 C 652.58 432.97 653.79 439.98 654.27 447.06 C 651.76 447.25 649.26 447.48 646.76 447.66 C 634.32 448.36 621.87 449.38 609.54 451.26 C 601.22 452.62 592.79 454.10 585.07 457.64 C 584.69 457.52 583.92 457.27 583.54 457.15 C 590.82 452.60 599.60 451.61 607.86 449.99 C 623.04 447.53 638.40 446.32 653.75 445.77 C 652.76 437.38 651.69 429.00 650.80 420.60 Z" />
<path fill="#e5e6e6" stroke="#e5e6e6" stroke-width="0.09375" opacity="1.00" d=" M 699.50 446.70 C 703.59 447.57 707.79 447.36 711.95 447.61 C 722.39 448.29 732.78 449.51 743.15 450.90 C 745.11 451.37 747.11 451.61 749.12 451.92 C 756.61 453.76 764.73 454.81 770.89 459.89 C 768.98 464.13 763.97 464.89 760.02 466.15 C 739.17 471.48 717.54 472.06 696.17 473.34 C 697.55 464.49 698.10 455.54 699.50 446.70 Z" />
<path fill="#e6e7e7" stroke="#e6e7e7" stroke-width="0.09375" opacity="1.00" d=" M 609.54 451.26 C 621.87 449.38 634.32 448.36 646.76 447.66 C 649.20 447.54 651.66 447.47 654.11 447.41 C 654.87 456.10 655.86 464.77 656.61 473.47 C 635.45 472.47 614.07 471.52 593.45 466.29 C 589.62 465.10 585.29 464.21 582.53 461.07 C 581.93 459.24 583.87 458.42 585.07 457.64 C 592.79 454.10 601.22 452.62 609.54 451.26 Z" />
<path fill="#ededed" stroke="#ededed" stroke-width="0.09375" opacity="1.00" d=" M 602.37 498.20 C 612.16 502.92 623.01 504.98 633.75 506.00 C 633.41 513.15 632.27 520.25 630.62 527.21 C 622.00 528.41 612.70 529.64 605.57 535.04 C 605.83 532.68 606.22 530.34 606.15 527.98 C 605.22 518.02 606.75 507.57 602.37 498.20 Z" />
<path fill="#e3e3e2" stroke="#e3e3e2" stroke-width="0.09375" opacity="1.00" d=" M 718.38 506.04 C 729.46 504.98 740.92 503.40 750.92 498.20 C 748.89 502.50 747.57 507.16 747.44 511.93 C 747.13 519.77 747.17 527.61 747.28 535.45 C 739.96 529.99 730.52 528.88 721.79 527.28 C 720.30 520.27 718.78 513.22 718.38 506.04 Z" />
<path fill="#ededec" stroke="#ededec" stroke-width="0.09375" opacity="1.00" d=" M 654.68 508.29 C 658.28 508.47 661.88 508.55 665.49 508.60 C 665.45 513.70 665.53 518.79 665.51 523.89 C 661.00 524.23 656.49 524.28 651.99 524.62 C 653.17 519.23 653.99 513.77 654.68 508.29 Z" />
<path fill="#eaeaea" stroke="#eaeaea" stroke-width="0.09375" opacity="1.00" d=" M 686.45 508.67 C 690.13 508.63 693.82 508.55 697.50 508.35 C 698.13 513.80 698.94 519.23 700.32 524.55 C 695.69 524.23 691.06 524.15 686.43 524.04 C 686.39 518.92 686.46 513.79 686.45 508.67 Z" />
<path fill="#e8e8e7" stroke="#e8e8e7" stroke-width="0.09375" opacity="1.00" d=" M 651.84 526.29 C 656.38 526.02 660.93 525.68 665.49 525.56 C 665.44 533.62 665.41 541.67 665.61 549.73 C 658.88 549.53 652.20 548.73 645.49 548.22 C 648.35 541.15 650.33 533.75 651.84 526.29 Z" />
<path fill="#e4e4e3" stroke="#e4e4e3" stroke-width="0.09375" opacity="1.00" d=" M 686.43 549.50 C 686.51 541.53 686.46 533.56 686.49 525.59 C 691.19 525.69 695.89 525.94 700.59 526.22 C 702.31 533.79 704.44 541.29 707.31 548.51 C 700.37 549.28 693.40 549.48 686.43 549.50 Z" />
<path fill="#dedede" stroke="#dedede" stroke-width="0.09375" opacity="1.00" d=" M 605.84 536.25 C 613.19 531.62 621.97 530.14 630.38 528.63 C 628.84 534.26 626.88 539.76 624.94 545.27 C 619.27 543.99 613.43 542.70 608.44 539.59 C 607.13 538.87 606.50 537.50 605.84 536.25 Z" />
<path fill="#e2e0df" stroke="#e2e0df" stroke-width="0.09375" opacity="1.00" d=" M 722.11 528.80 C 730.59 530.71 739.79 531.66 747.00 536.98 C 742.56 542.87 734.64 544.02 727.89 545.43 C 725.73 539.97 723.56 534.50 722.11 528.80 Z" />
<path fill="#000000" stroke="#000000" stroke-width="0.09375" opacity="1.00" d=" M 37.14 555.99 C 37.21 546.31 46.54 538.38 56.02 538.88 C 143.67 538.93 231.33 538.77 318.98 538.95 C 331.11 539.47 343.32 538.55 355.41 539.50 C 392.96 553.75 430.24 568.72 467.72 583.18 C 490.26 592.02 512.75 600.99 535.45 609.41 C 539.64 611.06 544.45 611.95 547.66 615.38 C 551.57 619.22 551.75 625.65 549.28 630.32 C 546.82 634.97 542.03 638.02 536.96 639.10 C 496.05 648.92 455.02 658.21 414.08 667.92 C 395.06 672.31 375.98 676.46 357.01 681.09 C 338.03 681.65 318.99 681.22 299.99 681.34 C 217.61 681.24 135.22 681.49 52.84 681.18 C 46.88 679.78 41.44 675.91 38.75 670.34 C 36.35 665.59 37.05 660.11 37.12 654.99 C 37.18 645.70 37.11 636.42 37.12 627.13 C 37.11 603.41 37.08 579.70 37.14 555.99 Z" />
<path fill="#000000" stroke="#000000" stroke-width="0.09375" opacity="1.00" d=" M 975.75 544.90 C 982.44 542.69 988.85 538.90 996.07 538.84 C 1096.05 538.94 1196.03 538.76 1296.01 538.84 C 1305.66 538.94 1313.66 548.48 1312.74 557.97 C 1312.76 582.02 1312.63 606.06 1312.69 630.11 C 1312.71 640.41 1312.70 650.70 1312.82 661.00 C 1314.22 671.31 1305.72 682.02 1294.96 681.33 C 1238.12 681.41 1181.27 681.24 1124.43 681.40 C 1084.97 681.22 1045.51 681.51 1006.05 681.20 C 999.37 681.02 992.56 681.74 986.02 680.06 C 953.19 671.83 920.08 664.76 887.11 657.15 C 859.58 650.81 831.94 644.92 804.61 637.76 C 799.93 636.47 794.77 635.39 791.30 631.70 C 786.45 626.83 785.85 617.94 791.17 613.19 C 795.41 609.83 800.98 609.03 805.90 607.05 C 862.61 586.59 919.10 565.51 975.75 544.90 Z" />
<path fill="#dedede" stroke="#dedede" stroke-width="0.09375" opacity="1.00" d=" M 59.40 553.61 C 63.06 552.05 67.13 552.80 70.99 552.66 C 163.65 552.63 256.32 552.68 348.98 552.64 C 355.14 552.44 360.67 556.86 362.18 562.77 C 361.72 563.07 360.80 563.65 360.34 563.95 C 358.99 558.86 354.53 554.41 348.98 554.72 C 254.32 554.74 159.66 554.69 64.99 554.78 C 58.95 554.54 53.27 559.85 53.43 565.96 C 53.34 596.00 53.38 626.05 53.37 656.09 C 53.11 659.63 55.21 662.69 57.40 665.25 C 56.94 665.53 56.03 666.08 55.57 666.35 C 53.03 663.51 51.22 659.92 51.33 656.04 C 51.24 626.02 51.28 595.99 51.39 565.96 C 51.11 560.70 54.55 555.56 59.40 553.61 Z" />
<path fill="#fbfbfb" stroke="#fbfbfb" stroke-width="0.09375" opacity="1.00" d=" M 985.23 567.01 C 984.30 561.62 986.99 556.24 992.02 554.01 C 995.20 552.91 998.61 553.39 1001.91 553.30 C 1095.93 553.28 1189.95 553.31 1283.96 553.30 C 1285.35 553.25 1286.70 553.53 1287.99 554.12 C 1288.80 554.68 1289.66 555.18 1290.58 555.62 L 1290.61 556.08 C 1293.02 557.75 1294.70 560.50 1294.80 563.47 L 1295.46 563.48 C 1295.36 595.16 1295.42 626.85 1295.41 658.53 L 1294.79 658.50 C 1294.60 659.97 1294.38 661.44 1294.06 662.90 C 1292.10 665.40 1289.81 667.63 1286.95 669.08 C 1277.34 669.94 1267.66 669.28 1258.02 669.50 C 1172.01 669.53 1086.00 669.51 999.99 669.50 C 997.20 669.60 994.41 669.37 991.77 668.46 C 988.56 666.30 985.18 663.18 985.27 659.00 C 985.22 628.34 985.31 597.67 985.23 567.01 Z" />
<path fill="#000000" stroke="#000000" stroke-width="0.09375" opacity="1.00" d=" M 53.43 565.96 C 53.27 559.85 58.95 554.54 64.99 554.78 C 159.66 554.69 254.32 554.74 348.98 554.72 C 354.53 554.41 358.99 558.86 360.34 563.95 C 360.49 594.62 360.14 625.31 360.36 655.99 C 360.84 662.15 355.49 668.49 349.05 667.65 C 254.68 667.66 160.30 667.73 65.93 667.60 C 62.86 667.87 60.01 666.73 57.40 665.25 C 55.21 662.69 53.11 659.63 53.37 656.09 C 53.38 626.05 53.34 596.00 53.43 565.96 Z" />
<path fill="#e3e3e2" stroke="#e3e3e2" stroke-width="0.09375" opacity="1.00" d=" M 360.34 563.95 C 360.80 563.65 361.72 563.07 362.18 562.77 C 362.53 592.83 362.12 622.90 362.32 652.96 C 362.32 656.31 362.62 659.91 360.87 662.94 C 358.90 666.97 354.64 669.99 350.04 669.64 C 254.71 669.72 159.38 669.70 64.05 669.67 C 60.86 669.77 58.10 668.07 55.57 666.35 C 56.03 666.08 56.94 665.53 57.40 665.25 C 60.01 666.73 62.86 667.87 65.93 667.60 C 160.30 667.73 254.68 667.66 349.05 667.65 C 355.49 668.49 360.84 662.15 360.36 655.99 C 360.14 625.31 360.49 594.62 360.34 563.95 Z" />
<path fill="#edeeee" stroke="#edeeee" stroke-width="0.09375" opacity="1.00" d=" M 0.00 612.93 C 7.17 612.94 14.48 613.38 21.30 615.78 C 27.52 618.04 32.18 622.93 37.12 627.13 C 37.11 636.42 37.18 645.70 37.12 654.99 C 37.05 660.11 36.35 665.59 38.75 670.34 C 41.44 675.91 46.88 679.78 52.84 681.18 C 55.98 682.07 59.28 682.06 62.48 682.67 C 63.70 683.51 64.16 685.04 64.89 686.28 C 67.66 692.11 71.01 697.86 75.93 702.15 C 81.66 706.88 88.75 709.81 96.05 711.02 C 108.37 712.74 121.07 712.34 133.10 715.88 C 142.16 718.81 149.01 725.83 155.08 732.85 C 162.75 742.68 165.94 755.69 164.43 768.00 L 0.00 768.00 L 0.00 612.93 Z" />
<path fill="#eceded" stroke="#eceded" stroke-width="0.09375" opacity="1.00" d=" M 1312.69 630.11 C 1322.36 624.89 1333.14 622.04 1344.00 620.63 L 1344.00 768.00 L 936.83 768.00 C 941.02 755.47 947.26 743.70 955.28 733.21 C 969.64 712.95 989.16 696.83 1010.64 684.62 C 1013.81 682.88 1017.52 682.83 1021.04 682.80 C 1039.03 682.82 1057.02 682.70 1075.02 682.79 C 1085.36 683.08 1095.67 682.01 1106.02 682.30 C 1112.16 682.29 1118.38 682.85 1124.43 681.40 C 1181.27 681.24 1238.12 681.41 1294.96 681.33 C 1305.72 682.02 1314.22 671.31 1312.82 661.00 C 1312.70 650.70 1312.71 640.41 1312.69 630.11 Z" />
<path fill="#f6f6f6" stroke="#f6f6f6" stroke-width="0.09375" opacity="1.00" d=" M 1280.29 701.36 C 1284.30 697.59 1285.32 692.00 1288.04 687.42 C 1290.37 691.39 1291.29 696.13 1294.33 699.69 C 1295.97 701.67 1297.78 703.52 1299.72 705.23 C 1303.34 708.57 1308.37 709.44 1312.50 711.96 C 1308.42 714.57 1303.36 715.42 1299.74 718.76 C 1296.40 721.78 1292.94 725.01 1291.31 729.32 C 1290.32 731.76 1289.29 734.21 1287.99 736.51 C 1285.55 732.61 1284.70 727.88 1281.68 724.34 C 1279.87 722.16 1277.86 720.15 1275.70 718.34 C 1272.16 715.31 1267.44 714.41 1263.53 712.01 C 1269.61 709.33 1275.87 706.52 1280.29 701.36 Z" />
</svg>
