<?xml version='1.0' encoding='UTF-8'?>
<svg xmlns="http://www.w3.org/2000/svg" width="1600" height="900" viewBox="0 0 1600 900" role="img">
  <title id="figure-title">Deep-learning analysis of differential gut microbiome-encoded antimicrobial peptides in Alzheimer’s disease</title>
  <desc id="figure-description">Clean native four-panel scientific review figure: clinical design, metagenome-to-peptide processing, deep-learning inference, and biological interpretation.</desc>
  <metadata>{"native_svg": true, "raster_trace": false, "embedded_images": 0, "semantic_groups": true, "editable_text": true}</metadata>
  <defs>
    <style>
   text{font-family:Arial,Helvetica,"Noto Sans",sans-serif}
   .title{font-size:27px;font-weight:700;letter-spacing:-.2px}.subtitle{font-size:14px;fill:#607487}
   .panelTitle{font-size:20px;font-weight:700}.cardTitle{font-size:15px;font-weight:700}
   .label{font-size:13px;font-weight:600}.small{font-size:11px}.tiny{font-size:9px}
   .white{fill:#fff}.center{text-anchor:middle}.right{text-anchor:end}
   .outline{stroke:#16344D;stroke-width:2;stroke-linecap:round;stroke-linejoin:round}
   .thin{stroke:#607487;stroke-width:1.5;stroke-linecap:round;stroke-linejoin:round}
  </style>
    <linearGradient id="gradA" x1="0" y1="0" x2="1" y2="1">
      <stop offset="0" stop-color="#FFF9F7"/>
      <stop offset="1" stop-color="#FCE9E3"/>
    </linearGradient>
    <linearGradient id="gradB" x1="0" y1="0" x2="1" y2="1">
      <stop offset="0" stop-color="#F8FBFD"/>
      <stop offset="1" stop-color="#E8F2F8"/>
    </linearGradient>
    <linearGradient id="gradC" x1="0" y1="0" x2="1" y2="1">
      <stop offset="0" stop-color="#FBF9FD"/>
      <stop offset="1" stop-color="#EEE9F7"/>
    </linearGradient>
    <linearGradient id="gradD" x1="0" y1="0" x2="1" y2="1">
      <stop offset="0" stop-color="#FFFCF5"/>
      <stop offset="1" stop-color="#F7F0D9"/>
    </linearGradient>
    <filter id="shadow" x="-20%" y="-20%" width="140%" height="150%">
      <feDropShadow dx="0" dy="3" stdDeviation="5" flood-color="#16344D" flood-opacity=".10"/>
    </filter>
    <marker id="arrow" markerWidth="10" markerHeight="10" refX="9" refY="3.5" orient="auto" markerUnits="strokeWidth">
      <path d="M0 0 L0 7 L9 3.5 Z" fill="#16344D"/>
    </marker>
    <marker id="arrowMuted" markerWidth="10" markerHeight="10" refX="9" refY="3.5" orient="auto" markerUnits="strokeWidth">
      <path d="M0 0 L0 7 L9 3.5 Z" fill="#607487"/>
    </marker>
    <marker id="arrowAD" markerWidth="10" markerHeight="10" refX="9" refY="3.5" orient="auto" markerUnits="strokeWidth">
      <path d="M0 0 L0 7 L9 3.5 Z" fill="#E86F61"/>
    </marker>
    <marker id="arrowHC" markerWidth="10" markerHeight="10" refX="9" refY="3.5" orient="auto" markerUnits="strokeWidth">
      <path d="M0 0 L0 7 L9 3.5 Z" fill="#27988B"/>
    </marker>
    <marker id="arrowGreen" markerWidth="10" markerHeight="10" refX="9" refY="3.5" orient="auto" markerUnits="strokeWidth">
      <path d="M0 0 L0 7 L9 3.5 Z" fill="#5A9B6D"/>
    </marker>
  </defs>
  <rect x="0" y="0" width="1600" height="900" rx="0" fill="#FFFFFF" stroke="none" stroke-width="1.4" id="background"/>
  <text x="50" y="48" class="title" text-anchor="start" fill="#16344D">Deep-learning discovery of differential gut microbial AMPs in Alzheimer’s disease</text>
  <text x="50" y="76" class="subtitle" text-anchor="start" fill="#607487">Review framework: matched cohorts → metagenomic peptide mining → calibrated AI prediction → biological interpretation and validation</text>
  <g id="header-chip">
    <rect x="1390" y="34" width="160" height="30" rx="15.0" fill="#16344D" stroke="none" stroke-width="1.4"/>
    <text x="1470.0" y="53.0" class="small" text-anchor="middle" fill="#FFFFFF" font-weight="700">REVIEW FRAMEWORK</text>
  </g>
  <line x1="50" y1="96" x2="1550" y2="96" stroke="#C7D5DF" stroke-width="1" stroke-linecap="round"/>
  <g id="panel-clinical">
    <rect x="40" y="125" width="740" height="320" rx="24" fill="url(#gradA)" stroke="#E86F61" stroke-width="1.8" filter="url(#shadow)"/>
    <circle cx="72" cy="157" r="18" fill="#E86F61" stroke="none" stroke-width="1.4"/>
    <text x="72" y="163" class="label" text-anchor="middle" fill="#FFFFFF" font-weight="700" font-size="15">A</text>
    <text x="102" y="164" class="panelTitle" text-anchor="start" fill="#16344D">Clinical design</text>
    <line x1="64" y1="183" x2="756" y2="183" stroke="#C7D5DF" stroke-width="1" stroke-linecap="round"/>
    <g id="cohort-ad">
      <rect x="70" y="205" width="185" height="185" rx="15" fill="#FFFFFF" stroke="#F4A091" stroke-width="1.3" filter="url(#shadow)"/>
      <g id="ad-pill">
        <rect x="188" y="216" width="48" height="22" rx="11.0" fill="#E86F61" stroke="none" stroke-width="1.4"/>
        <text x="212.0" y="231.0" class="small" text-anchor="middle" fill="#FFFFFF" font-weight="700">AD</text>
      </g>
      <text x="162" y="252" class="cardTitle" text-anchor="middle" fill="#16344D">Alzheimer’s disease</text>
      <g id="ad-person-1" transform="translate(125 310) scale(0.75)">
        <circle cx="0" cy="-31" r="10" fill="#E86F61" stroke="none" stroke-width="1.4"/>
        <path d="M-12 -18 Q0 -25 12 -18 L15 17 L8 55 M-15 17 L-11 -12 M15 17 L11 -12 M0 15 L-7 55" fill="none" stroke="#E86F61" stroke-width="9" stroke-linecap="round" stroke-linejoin="round"/>
      </g>
      <g id="ad-person-2" transform="translate(188 312) scale(0.75)">
        <circle cx="0" cy="-31" r="10" fill="#E86F61" stroke="none" stroke-width="1.4"/>
        <path d="M-8 -18 C-19 -7 -17 16 -11 33 L-19 58 M-8 -5 L11 4 L15 30 L8 57 M-5 -17 C7 -21 15 -12 14 3" fill="none" stroke="#E86F61" stroke-width="9" stroke-linecap="round" stroke-linejoin="round"/>
        <path d="M18 3 L29 47 M23 47 L35 47" fill="none" stroke="#8B6048" stroke-width="3" stroke-linecap="round" stroke-linejoin="round"/>
      </g>
      <g id="ad-brain" transform="translate(215 282) scale(0.48)">
        <path d="M0 35 C-12 48 -29 40 -27 25 C-46 26 -52 8 -40 -4 C-50 -20 -34 -35 -20 -29 C-14 -45 7 -44 13 -29 C28 -38 43 -25 38 -10 C55 -2 49 18 35 20 C30 38 12 45 0 35 Z" fill="#FFFFFF" stroke="#E86F61" stroke-width="2.5" stroke-linecap="round" stroke-linejoin="round"/>
        <path d="M1 -28 C-6 -14 5 -6 0 6 C-5 17 4 25 0 35" fill="none" stroke="#E86F61" stroke-width="1.7" stroke-linecap="round" stroke-linejoin="round"/>
        <path d="M-22 -27 C-11 -22 -17 -9 -8 -4" fill="none" stroke="#E86F61" stroke-width="1.7" stroke-linecap="round" stroke-linejoin="round"/>
        <path d="M31 -18 C18 -17 24 -3 13 2" fill="none" stroke="#E86F61" stroke-width="1.7" stroke-linecap="round" stroke-linejoin="round"/>
        <path d="M-38 1 C-24 1 -27 15 -15 19" fill="none" stroke="#E86F61" stroke-width="1.7" stroke-linecap="round" stroke-linejoin="round"/>
        <path d="M38 5 C25 5 30 21 17 25" fill="none" stroke="#E86F61" stroke-width="1.7" stroke-linecap="round" stroke-linejoin="round"/>
      </g>
      <text x="162" y="373" class="small" text-anchor="middle" fill="#607487">AD cohort</text>
    </g>
    <g id="cohort-hc">
      <rect x="280" y="205" width="185" height="185" rx="15" fill="#FFFFFF" stroke="#77C2B8" stroke-width="1.3" filter="url(#shadow)"/>
      <g id="hc-pill">
        <rect x="398" y="216" width="48" height="22" rx="11.0" fill="#27988B" stroke="none" stroke-width="1.4"/>
        <text x="422.0" y="231.0" class="small" text-anchor="middle" fill="#FFFFFF" font-weight="700">HC</text>
      </g>
      <text x="372" y="252" class="cardTitle" text-anchor="middle" fill="#16344D">Healthy control</text>
      <g id="hc-person-1" transform="translate(337 310) scale(0.75)">
        <circle cx="0" cy="-31" r="10" fill="#27988B" stroke="none" stroke-width="1.4"/>
        <path d="M-12 -18 Q0 -25 12 -18 L15 17 L8 55 M-15 17 L-11 -12 M15 17 L11 -12 M0 15 L-7 55" fill="none" stroke="#27988B" stroke-width="9" stroke-linecap="round" stroke-linejoin="round"/>
      </g>
      <g id="hc-person-2" transform="translate(402 310) scale(0.75)">
        <circle cx="0" cy="-31" r="10" fill="#27988B" stroke="none" stroke-width="1.4"/>
        <path d="M-12 -18 Q0 -25 12 -18 L15 17 L8 55 M-15 17 L-11 -12 M15 17 L11 -12 M0 15 L-7 55" fill="none" stroke="#27988B" stroke-width="9" stroke-linecap="round" stroke-linejoin="round"/>
      </g>
      <g id="hc-brain" transform="translate(430 282) scale(0.48)">
        <path d="M0 35 C-12 48 -29 40 -27 25 C-46 26 -52 8 -40 -4 C-50 -20 -34 -35 -20 -29 C-14 -45 7 -44 13 -29 C28 -38 43 -25 38 -10 C55 -2 49 18 35 20 C30 38 12 45 0 35 Z" fill="#FFFFFF" stroke="#27988B" stroke-width="2.5" stroke-linecap="round" stroke-linejoin="round"/>
        <path d="M1 -28 C-6 -14 5 -6 0 6 C-5 17 4 25 0 35" fill="none" stroke="#27988B" stroke-width="1.7" stroke-linecap="round" stroke-linejoin="round"/>
        <path d="M-22 -27 C-11 -22 -17 -9 -8 -4" fill="none" stroke="#27988B" stroke-width="1.7" stroke-linecap="round" stroke-linejoin="round"/>
        <path d="M31 -18 C18 -17 24 -3 13 2" fill="none" stroke="#27988B" stroke-width="1.7" stroke-linecap="round" stroke-linejoin="round"/>
        <path d="M-38 1 C-24 1 -27 15 -15 19" fill="none" stroke="#27988B" stroke-width="1.7" stroke-linecap="round" stroke-linejoin="round"/>
        <path d="M38 5 C25 5 30 21 17 25" fill="none" stroke="#27988B" stroke-width="1.7" stroke-linecap="round" stroke-linejoin="round"/>
      </g>
      <text x="372" y="373" class="small" text-anchor="middle" fill="#607487">Control cohort</text>
    </g>
    <g id="matched-design">
      <rect x="510" y="205" width="235" height="185" rx="15" fill="#FFFFFF" stroke="#C7D5DF" stroke-width="1.3" filter="url(#shadow)"/>
      <text x="627" y="232" class="cardTitle" text-anchor="middle" fill="#16344D">Matched stool cohorts</text>
      <g id="covariate-1">
        <rect x="530" y="250" width="52" height="22" rx="11.0" fill="#3D6F94" stroke="none" stroke-width="1.4"/>
        <text x="556.0" y="265.0" class="small" text-anchor="middle" fill="#FFFFFF" font-weight="700">Age</text>
      </g>
      <g id="covariate-2">
        <rect x="590" y="250" width="50" height="22" rx="11.0" fill="#705AA7" stroke="none" stroke-width="1.4"/>
        <text x="615.0" y="265.0" class="small" text-anchor="middle" fill="#FFFFFF" font-weight="700">Sex</text>
      </g>
      <g id="covariate-3">
        <rect x="648" y="250" width="52" height="22" rx="11.0" fill="#D7A338" stroke="none" stroke-width="1.4"/>
        <text x="674.0" y="265.0" class="small" text-anchor="middle" fill="#FFFFFF" font-weight="700">Diet</text>
      </g>
      <g id="covariate-4">
        <rect x="530" y="280" width="82" height="22" rx="11.0" fill="#E86F61" stroke="none" stroke-width="1.4"/>
        <text x="571.0" y="295.0" class="small" text-anchor="middle" fill="#FFFFFF" font-weight="700">Medication</text>
      </g>
      <g id="covariate-5">
        <rect x="620" y="280" width="60" height="22" rx="11.0" fill="#27988B" stroke="none" stroke-width="1.4"/>
        <text x="650.0" y="295.0" class="small" text-anchor="middle" fill="#FFFFFF" font-weight="700">Batch</text>
      </g>
      <g id="stool-tube" transform="translate(687 333) scale(0.75)">
        <rect x="-18" y="-43" width="36" height="10" rx="3" fill="#3D6F94" stroke="#16344D" stroke-width="1.5"/>
        <path d="M-14 -33 L14 -33 L11 25 Q9 40 0 46 Q-9 40 -11 25 Z" fill="#FFFFFF" stroke="#16344D" stroke-width="2" stroke-linecap="round" stroke-linejoin="round"/>
        <path d="M-10 10 L10 10 L9 27 Q6 38 0 41 Q-6 38 -9 27 Z" fill="#F0CD79" stroke="none" stroke-width="2" stroke-linecap="round" stroke-linejoin="round"/>
        <line x1="-8" y1="2" x2="8" y2="2" stroke="#C7D5DF" stroke-width="1" stroke-linecap="round"/>
      </g>
      <text x="610" y="336" class="label" text-anchor="middle" fill="#16344D">Shotgun</text>
      <text x="610" y="353" class="small" text-anchor="middle" fill="#607487">metagenomics</text>
    </g>
    <line x1="468" y1="300" x2="505" y2="300" stroke="#607487" stroke-width="1.8" stroke-linecap="round" marker-end="url(#arrowMuted)" id="cohorts-to-match"/>
    <text x="407" y="418" class="small" text-anchor="middle" fill="#607487">Cohort matching and covariate control precede group comparison</text>
  </g>
  <g id="panel-metagenome">
    <rect x="820" y="125" width="740" height="320" rx="24" fill="url(#gradB)" stroke="#3D6F94" stroke-width="1.8" filter="url(#shadow)"/>
    <circle cx="852" cy="157" r="18" fill="#3D6F94" stroke="none" stroke-width="1.4"/>
    <text x="852" y="163" class="label" text-anchor="middle" fill="#FFFFFF" font-weight="700" font-size="15">B</text>
    <text x="882" y="164" class="panelTitle" text-anchor="start" fill="#16344D">Metagenome → peptide catalog</text>
    <line x1="844" y1="183" x2="1536" y2="183" stroke="#C7D5DF" stroke-width="1" stroke-linecap="round"/>
    <g id="meta-stage-1">
      <rect x="850" y="205" width="150" height="170" rx="15" fill="#FFFFFF" stroke="#C7D5DF" stroke-width="1.3" filter="url(#shadow)"/>
      <text x="925" y="230" class="cardTitle" text-anchor="middle" fill="#16344D">Quality control</text>
      <text x="925" y="359" class="small" text-anchor="middle" fill="#607487">Filtered reads</text>
      <g id="qc-funnel">
        <path d="M868 252 L932 252 L911 278 L906 316 L894 316 L889 278 Z" fill="#EEF5FA" stroke="#3D6F94" stroke-width="2" stroke-linecap="round" stroke-linejoin="round"/>
      </g>
      <g id="qc-sample" transform="translate(954 300) scale(0.42)">
        <rect x="-18" y="-43" width="36" height="10" rx="3" fill="#3D6F94" stroke="#16344D" stroke-width="1.5"/>
        <path d="M-14 -33 L14 -33 L11 25 Q9 40 0 46 Q-9 40 -11 25 Z" fill="#FFFFFF" stroke="#16344D" stroke-width="2" stroke-linecap="round" stroke-linejoin="round"/>
        <path d="M-10 10 L10 10 L9 27 Q6 38 0 41 Q-6 38 -9 27 Z" fill="#F0CD79" stroke="none" stroke-width="2" stroke-linecap="round" stroke-linejoin="round"/>
        <line x1="-8" y1="2" x2="8" y2="2" stroke="#C7D5DF" stroke-width="1" stroke-linecap="round"/>
      </g>
      <circle cx="960" cy="255" r="10" fill="#EFF8F1" stroke="#5A9B6D" stroke-width="1.5"/>
      <path d="M955 255 L959 260 L967 250" fill="none" stroke="#5A9B6D" stroke-width="2" stroke-linecap="round" stroke-linejoin="round"/>
    </g>
    <line x1="1002" y1="290" x2="1016" y2="290" stroke="#3D6F94" stroke-width="1.8" stroke-linecap="round" marker-end="url(#arrow)" id="meta-arrow-1"/>
    <g id="meta-stage-2">
      <rect x="1020" y="205" width="150" height="170" rx="15" fill="#FFFFFF" stroke="#C7D5DF" stroke-width="1.3" filter="url(#shadow)"/>
      <text x="1095" y="230" class="cardTitle" text-anchor="middle" fill="#16344D">Assembly</text>
      <text x="1095" y="359" class="small" text-anchor="middle" fill="#607487">Contigs</text>
      <g id="read-fragments">
        <path d="M1050 255 L1076 255" fill="none" stroke="#E86F61" stroke-width="4" stroke-linecap="round" stroke-linejoin="round"/>
        <path d="M1070 270 L1096 270" fill="none" stroke="#3D6F94" stroke-width="4" stroke-linecap="round" stroke-linejoin="round"/>
        <path d="M1090 251 L1116 251" fill="none" stroke="#27988B" stroke-width="4" stroke-linecap="round" stroke-linejoin="round"/>
        <path d="M1110 273 L1136 273" fill="none" stroke="#D7A338" stroke-width="4" stroke-linecap="round" stroke-linejoin="round"/>
        <path d="M1062 293 L1088 293" fill="none" stroke="#705AA7" stroke-width="4" stroke-linecap="round" stroke-linejoin="round"/>
        <path d="M1098 295 L1124 295" fill="none" stroke="#F4A091" stroke-width="4" stroke-linecap="round" stroke-linejoin="round"/>
      </g>
      <g id="assembled-contigs">
        <rect x="1050" y="302" width="30" height="12" rx="4" fill="#3D6F94" stroke="#16344D" stroke-width="1"/>
        <rect x="1085" y="302" width="48" height="12" rx="4" fill="#27988B" stroke="#16344D" stroke-width="1"/>
        <rect x="1053" y="324" width="55" height="12" rx="4" fill="#F4A091" stroke="#16344D" stroke-width="1"/>
        <rect x="1113" y="324" width="28" height="12" rx="4" fill="#D7A338" stroke="#16344D" stroke-width="1"/>
        <rect x="1070" y="346" width="38" height="12" rx="4" fill="#705AA7" stroke="#16344D" stroke-width="1"/>
        <rect x="1113" y="346" width="48" height="12" rx="4" fill="#82ACCA" stroke="#16344D" stroke-width="1"/>
      </g>
    </g>
    <line x1="1172" y1="290" x2="1186" y2="290" stroke="#3D6F94" stroke-width="1.8" stroke-linecap="round" marker-end="url(#arrow)" id="meta-arrow-2"/>
    <g id="meta-stage-3">
      <rect x="1190" y="205" width="150" height="170" rx="15" fill="#FFFFFF" stroke="#C7D5DF" stroke-width="1.3" filter="url(#shadow)"/>
      <text x="1265" y="230" class="cardTitle" text-anchor="middle" fill="#16344D">smORF calling</text>
      <text x="1265" y="359" class="small" text-anchor="middle" fill="#607487">Candidate peptides</text>
      <g id="smorf-dna" transform="translate(1265 270) scale(0.65)">
        <path d="M-38 -32 C-12 -17 -12 17 -38 32" fill="none" stroke="#705AA7" stroke-width="3" stroke-linecap="round" stroke-linejoin="round"/>
        <path d="M38 -32 C12 -17 12 17 38 32" fill="none" stroke="#27988B" stroke-width="3" stroke-linecap="round" stroke-linejoin="round"/>
        <path d="M-38 -32 C-10 -10 10 10 38 32" fill="none" stroke="#705AA7" stroke-width="1.8" stroke-linecap="round" stroke-linejoin="round" opacity="0.6"/>
        <path d="M38 -32 C10 -10 -10 10 -38 32" fill="none" stroke="#27988B" stroke-width="1.8" stroke-linecap="round" stroke-linejoin="round" opacity="0.6"/>
        <line x1="-28" y1="-24" x2="28" y2="-24" stroke="#16344D" stroke-width="1" stroke-linecap="round" opacity="0.55"/>
        <line x1="-14" y1="-12" x2="14" y2="-12" stroke="#16344D" stroke-width="1" stroke-linecap="round" opacity="0.55"/>
        <line x1="0" y1="0" x2="0" y2="0" stroke="#16344D" stroke-width="1" stroke-linecap="round" opacity="0.55"/>
        <line x1="14" y1="12" x2="-14" y2="12" stroke="#16344D" stroke-width="1" stroke-linecap="round" opacity="0.55"/>
        <line x1="28" y1="24" x2="-28" y2="24" stroke="#16344D" stroke-width="1" stroke-linecap="round" opacity="0.55"/>
      </g>
      <g id="smorf-peptide" transform="translate(1265 320) scale(0.72)">
        <path d="M-42 7 L-28 -8 L-14 7 L0 -8 L14 7 L28 -8 L42 7" fill="none" stroke="#D7A338" stroke-width="2.6" stroke-linecap="round" stroke-linejoin="round"/>
        <circle cx="-42" cy="7" r="5" fill="#D7A338" stroke="#D7A338" stroke-width="1.7"/>
        <circle cx="-28" cy="-8" r="5" fill="#FFFFFF" stroke="#D7A338" stroke-width="1.7"/>
        <circle cx="-14" cy="7" r="5" fill="#D7A338" stroke="#D7A338" stroke-width="1.7"/>
        <circle cx="0" cy="-8" r="5" fill="#FFFFFF" stroke="#D7A338" stroke-width="1.7"/>
        <circle cx="14" cy="7" r="5" fill="#D7A338" stroke="#D7A338" stroke-width="1.7"/>
        <circle cx="28" cy="-8" r="5" fill="#FFFFFF" stroke="#D7A338" stroke-width="1.7"/>
        <circle cx="42" cy="7" r="5" fill="#D7A338" stroke="#D7A338" stroke-width="1.7"/>
      </g>
    </g>
    <line x1="1342" y1="290" x2="1356" y2="290" stroke="#3D6F94" stroke-width="1.8" stroke-linecap="round" marker-end="url(#arrow)" id="meta-arrow-3"/>
    <g id="meta-stage-4">
      <rect x="1360" y="205" width="150" height="170" rx="15" fill="#FFFFFF" stroke="#C7D5DF" stroke-width="1.3" filter="url(#shadow)"/>
      <text x="1435" y="230" class="cardTitle" text-anchor="middle" fill="#16344D">Peptide catalog</text>
      <text x="1435" y="359" class="small" text-anchor="middle" fill="#607487">Nonredundant set</text>
      <g id="catalog-table">
        <rect x="1393" y="244" width="84" height="92" rx="6" fill="#FFFFFF" stroke="#3D6F94" stroke-width="2"/>
        <rect x="1403" y="258" width="14" height="9" rx="2" fill="#F4A091" stroke="none" stroke-width="1.4"/>
        <line x1="1425" y1="263" x2="1465" y2="263" stroke="#3D6F94" stroke-width="3" stroke-linecap="round"/>
        <rect x="1403" y="277" width="14" height="9" rx="2" fill="#77C2B8" stroke="none" stroke-width="1.4"/>
        <line x1="1425" y1="282" x2="1465" y2="282" stroke="#3D6F94" stroke-width="3" stroke-linecap="round"/>
        <rect x="1403" y="296" width="14" height="9" rx="2" fill="#F0CD79" stroke="none" stroke-width="1.4"/>
        <line x1="1425" y1="301" x2="1465" y2="301" stroke="#3D6F94" stroke-width="3" stroke-linecap="round"/>
        <rect x="1403" y="315" width="14" height="9" rx="2" fill="#A895CB" stroke="none" stroke-width="1.4"/>
        <line x1="1425" y1="320" x2="1465" y2="320" stroke="#3D6F94" stroke-width="3" stroke-linecap="round"/>
        <line x1="1393" y1="278" x2="1477" y2="278" stroke="#C7D5DF" stroke-width="1" stroke-linecap="round"/>
        <line x1="1393" y1="298" x2="1477" y2="298" stroke="#C7D5DF" stroke-width="1" stroke-linecap="round"/>
      </g>
    </g>
    <text x="1190" y="418" class="small" text-anchor="middle" fill="#607487">QC • assembly • small-ORF translation • redundancy removal</text>
  </g>
  <g id="panel-interpretation">
    <rect x="40" y="480" width="740" height="350" rx="24" fill="url(#gradD)" stroke="#D7A338" stroke-width="1.8" filter="url(#shadow)"/>
    <circle cx="72" cy="512" r="18" fill="#D7A338" stroke="none" stroke-width="1.4"/>
    <text x="72" y="518" class="label" text-anchor="middle" fill="#FFFFFF" font-weight="700" font-size="15">D</text>
    <text x="102" y="519" class="panelTitle" text-anchor="start" fill="#16344D">Biological interpretation</text>
    <line x1="64" y1="538" x2="756" y2="538" stroke="#C7D5DF" stroke-width="1" stroke-linecap="round"/>
    <g id="amp-hub">
      <rect x="315" y="590" width="190" height="135" rx="15" fill="#FFFFFF" stroke="#F0CD79" stroke-width="1.3" filter="url(#shadow)"/>
      <g id="hub-peptide" transform="translate(410 628) scale(0.95)">
        <path d="M-42 7 L-28 -8 L-14 7 L0 -8 L14 7 L28 -8 L42 7" fill="none" stroke="#D7A338" stroke-width="2.6" stroke-linecap="round" stroke-linejoin="round"/>
        <circle cx="-42" cy="7" r="5" fill="#D7A338" stroke="#D7A338" stroke-width="1.7"/>
        <circle cx="-28" cy="-8" r="5" fill="#FFFFFF" stroke="#D7A338" stroke-width="1.7"/>
        <circle cx="-14" cy="7" r="5" fill="#D7A338" stroke="#D7A338" stroke-width="1.7"/>
        <circle cx="0" cy="-8" r="5" fill="#FFFFFF" stroke="#D7A338" stroke-width="1.7"/>
        <circle cx="14" cy="7" r="5" fill="#D7A338" stroke="#D7A338" stroke-width="1.7"/>
        <circle cx="28" cy="-8" r="5" fill="#FFFFFF" stroke="#D7A338" stroke-width="1.7"/>
        <circle cx="42" cy="7" r="5" fill="#D7A338" stroke="#D7A338" stroke-width="1.7"/>
      </g>
      <text x="410" y="674" class="cardTitle" text-anchor="middle" fill="#16344D">Prioritized AMP</text>
      <text x="410" y="693" class="label" text-anchor="middle" fill="#16344D">repertoire</text>
    </g>
    <g id="differential-profile">
      <rect x="70" y="555" width="205" height="115" rx="15" fill="#FFFFFF" stroke="#F4A091" stroke-width="1.3" filter="url(#shadow)"/>
      <text x="172" y="578" class="cardTitle" text-anchor="middle" fill="#16344D">Differential profile</text>
      <g id="differential-bars">
        <line x1="122" y1="659" x2="227" y2="659" stroke="#16344D" stroke-width="1.5" stroke-linecap="round"/>
        <line x1="122" y1="659" x2="122" y2="586" stroke="#16344D" stroke-width="1.5" stroke-linecap="round"/>
        <rect x="134" y="597" width="16" height="62" rx="3" fill="#E86F61" stroke="none" stroke-width="1.4"/>
        <rect x="158" y="625" width="16" height="34" rx="3" fill="#27988B" stroke="none" stroke-width="1.4"/>
        <rect x="182" y="611" width="16" height="48" rx="3" fill="#F4A091" stroke="none" stroke-width="1.4"/>
        <rect x="206" y="632" width="16" height="27" rx="3" fill="#77C2B8" stroke="none" stroke-width="1.4"/>
        <line x1="130" y1="614" x2="220" y2="614" stroke="#C7D5DF" stroke-width="1" stroke-linecap="round" stroke-dasharray="4 4"/>
      </g>
      <g id="diff-ad">
        <rect x="85" y="643" width="40" height="18" rx="9.0" fill="#E86F61" stroke="none" stroke-width="1.4"/>
        <text x="105.0" y="656.0" class="tiny" text-anchor="middle" fill="#FFFFFF" font-weight="700">AD</text>
      </g>
      <g id="diff-hc">
        <rect x="217" y="643" width="40" height="18" rx="9.0" fill="#27988B" stroke="none" stroke-width="1.4"/>
        <text x="237.0" y="656.0" class="tiny" text-anchor="middle" fill="#FFFFFF" font-weight="700">HC</text>
      </g>
    </g>
    <g id="source-mapping">
      <rect x="70" y="690" width="205" height="110" rx="15" fill="#FFFFFF" stroke="#77C2B8" stroke-width="1.3" filter="url(#shadow)"/>
      <text x="172" y="713" class="cardTitle" text-anchor="middle" fill="#16344D">Microbial source</text>
      <g id="source-network">
        <line x1="105" y1="735" x2="135" y2="720" stroke="#A895CB" stroke-width="1.5" stroke-linecap="round"/>
        <line x1="135" y1="720" x2="170" y2="731" stroke="#A895CB" stroke-width="1.5" stroke-linecap="round"/>
        <line x1="105" y1="735" x2="114" y2="773" stroke="#A895CB" stroke-width="1.5" stroke-linecap="round"/>
        <line x1="135" y1="720" x2="146" y2="758" stroke="#A895CB" stroke-width="1.5" stroke-linecap="round"/>
        <line x1="170" y1="731" x2="146" y2="758" stroke="#A895CB" stroke-width="1.5" stroke-linecap="round"/>
        <line x1="114" y1="773" x2="146" y2="758" stroke="#A895CB" stroke-width="1.5" stroke-linecap="round"/>
        <line x1="146" y1="758" x2="175" y2="777" stroke="#A895CB" stroke-width="1.5" stroke-linecap="round"/>
        <line x1="114" y1="773" x2="142" y2="790" stroke="#A895CB" stroke-width="1.5" stroke-linecap="round"/>
        <line x1="175" y1="777" x2="142" y2="790" stroke="#A895CB" stroke-width="1.5" stroke-linecap="round"/>
        <circle cx="105" cy="735" r="5" fill="#FFFFFF" stroke="#705AA7" stroke-width="1.3"/>
        <circle cx="135" cy="720" r="5" fill="#FFFFFF" stroke="#705AA7" stroke-width="1.3"/>
        <circle cx="170" cy="731" r="5" fill="#FFFFFF" stroke="#705AA7" stroke-width="1.3"/>
        <circle cx="114" cy="773" r="5" fill="#FFFFFF" stroke="#705AA7" stroke-width="1.3"/>
        <circle cx="146" cy="758" r="5" fill="#705AA7" stroke="#705AA7" stroke-width="1.3"/>
        <circle cx="175" cy="777" r="5" fill="#FFFFFF" stroke="#705AA7" stroke-width="1.3"/>
        <circle cx="142" cy="790" r="5" fill="#FFFFFF" stroke="#705AA7" stroke-width="1.3"/>
      </g>
      <g id="source-microbes" transform="translate(215 755) scale(0.6)">
        <rect x="-40" y="-23" width="24" height="12" rx="6" fill="#27988B" stroke="#16344D" stroke-width="1.2"/>
        <line x1="-35.8" y1="-17.0" x2="-40" y2="-17" stroke="#27988B" stroke-width="1" stroke-linecap="round"/>
        <line x1="-20.2" y1="-17.0" x2="-16" y2="-17" stroke="#27988B" stroke-width="1" stroke-linecap="round"/>
        <line x1="-28.0" y1="-24.8" x2="-28" y2="-29" stroke="#27988B" stroke-width="1" stroke-linecap="round"/>
        <line x1="-28.0" y1="-9.2" x2="-28" y2="-5" stroke="#27988B" stroke-width="1" stroke-linecap="round"/>
        <circle cx="8" cy="-23" r="9" fill="#E86F61" stroke="#16344D" stroke-width="1.2"/>
        <line x1="0.1999999999999993" y1="-23.0" x2="-4" y2="-23" stroke="#E86F61" stroke-width="1" stroke-linecap="round"/>
        <line x1="15.8" y1="-23.0" x2="20" y2="-23" stroke="#E86F61" stroke-width="1" stroke-linecap="round"/>
        <line x1="8.0" y1="-30.8" x2="8" y2="-35" stroke="#E86F61" stroke-width="1" stroke-linecap="round"/>
        <line x1="8.0" y1="-15.2" x2="8" y2="-11" stroke="#E86F61" stroke-width="1" stroke-linecap="round"/>
        <rect x="18" y="-1" width="24" height="12" rx="6" fill="#D7A338" stroke="#16344D" stroke-width="1.2"/>
        <line x1="22.2" y1="5.0" x2="18" y2="5" stroke="#D7A338" stroke-width="1" stroke-linecap="round"/>
        <line x1="37.8" y1="5.0" x2="42" y2="5" stroke="#D7A338" stroke-width="1" stroke-linecap="round"/>
        <line x1="30.0" y1="-2.8000000000000007" x2="30" y2="-7" stroke="#D7A338" stroke-width="1" stroke-linecap="round"/>
        <line x1="30.0" y1="12.8" x2="30" y2="17" stroke="#D7A338" stroke-width="1" stroke-linecap="round"/>
        <circle cx="-12" cy="22" r="9" fill="#705AA7" stroke="#16344D" stroke-width="1.2"/>
        <line x1="-19.8" y1="22.0" x2="-24" y2="22" stroke="#705AA7" stroke-width="1" stroke-linecap="round"/>
        <line x1="-4.199999999999999" y1="22.0" x2="0" y2="22" stroke="#705AA7" stroke-width="1" stroke-linecap="round"/>
        <line x1="-12.0" y1="14.2" x2="-12" y2="10" stroke="#705AA7" stroke-width="1" stroke-linecap="round"/>
        <line x1="-12.0" y1="29.8" x2="-12" y2="34" stroke="#705AA7" stroke-width="1" stroke-linecap="round"/>
        <rect x="6" y="19" width="24" height="12" rx="6" fill="#5A9B6D" stroke="#16344D" stroke-width="1.2"/>
        <line x1="10.2" y1="25.0" x2="6" y2="25" stroke="#5A9B6D" stroke-width="1" stroke-linecap="round"/>
        <line x1="25.8" y1="25.0" x2="30" y2="25" stroke="#5A9B6D" stroke-width="1" stroke-linecap="round"/>
        <line x1="18.0" y1="17.2" x2="18" y2="13" stroke="#5A9B6D" stroke-width="1" stroke-linecap="round"/>
        <line x1="18.0" y1="32.8" x2="18" y2="37" stroke="#5A9B6D" stroke-width="1" stroke-linecap="round"/>
      </g>
    </g>
    <g id="activity-safety">
      <rect x="545" y="555" width="200" height="115" rx="15" fill="#FFFFFF" stroke="#9BC8A7" stroke-width="1.3" filter="url(#shadow)"/>
      <text x="645" y="578" class="cardTitle" text-anchor="middle" fill="#16344D">Activity &amp; safety</text>
      <g id="activity-shield" transform="translate(645 624) scale(0.8)">
        <ellipse cx="-24" cy="0" rx="38" ry="22" fill="#FFF8E8" stroke="#D7A338" stroke-width="2"/>
        <circle cx="-42" cy="-7" r="5" fill="#F0CD79" stroke="#D7A338" stroke-width="1"/>
        <circle cx="-24" cy="-8" r="5" fill="#F0CD79" stroke="#D7A338" stroke-width="1"/>
        <circle cx="-6" cy="-6" r="5" fill="#F0CD79" stroke="#D7A338" stroke-width="1"/>
        <circle cx="-34" cy="7" r="5" fill="#F0CD79" stroke="#D7A338" stroke-width="1"/>
        <circle cx="-14" cy="8" r="5" fill="#F0CD79" stroke="#D7A338" stroke-width="1"/>
        <path d="M28 -28 L55 -18 L52 6 Q47 25 28 34 Q9 25 6 6 L3 -18 Z" fill="#EFF8F1" stroke="#5A9B6D" stroke-width="2" stroke-linecap="round" stroke-linejoin="round"/>
        <path d="M15 1 L25 11 L43 -10" fill="none" stroke="#5A9B6D" stroke-width="3" stroke-linecap="round" stroke-linejoin="round"/>
      </g>
      <text x="645" y="655" class="small" text-anchor="middle" fill="#607487">efficacy • toxicity</text>
    </g>
    <g id="gut-brain-validation">
      <rect x="545" y="690" width="200" height="110" rx="15" fill="#FFFFFF" stroke="#82ACCA" stroke-width="1.3" filter="url(#shadow)"/>
      <text x="645" y="713" class="cardTitle" text-anchor="middle" fill="#16344D">Gut–brain + validation</text>
      <g id="mini-gut" transform="translate(585 756) scale(0.45)">
        <path d="M-36 -34 C-52 -25 -48 -5 -38 1 C-51 14 -42 35 -25 36 C-12 50 7 44 13 34 C30 43 47 29 40 13 C52 0 42 -20 28 -22 C20 -40 1 -38 -7 -28 C-17 -40 -29 -39 -36 -34 Z" fill="none" stroke="#E86F61" stroke-width="7" stroke-linecap="round" stroke-linejoin="round"/>
        <path d="M-25 -20 C-5 -32 23 -22 25 -8 C25 5 -1 4 -16 -1 C-31 -6 -29 12 -15 13 C1 15 24 11 26 24 C28 34 14 38 3 31" fill="none" stroke="#E86F61" stroke-width="5" stroke-linecap="round" stroke-linejoin="round"/>
      </g>
      <g id="mini-brain" transform="translate(657 756) scale(0.45)">
        <path d="M0 35 C-12 48 -29 40 -27 25 C-46 26 -52 8 -40 -4 C-50 -20 -34 -35 -20 -29 C-14 -45 7 -44 13 -29 C28 -38 43 -25 38 -10 C55 -2 49 18 35 20 C30 38 12 45 0 35 Z" fill="#FFFFFF" stroke="#3D6F94" stroke-width="2.5" stroke-linecap="round" stroke-linejoin="round"/>
        <path d="M1 -28 C-6 -14 5 -6 0 6 C-5 17 4 25 0 35" fill="none" stroke="#3D6F94" stroke-width="1.7" stroke-linecap="round" stroke-linejoin="round"/>
        <path d="M-22 -27 C-11 -22 -17 -9 -8 -4" fill="none" stroke="#3D6F94" stroke-width="1.7" stroke-linecap="round" stroke-linejoin="round"/>
        <path d="M31 -18 C18 -17 24 -3 13 2" fill="none" stroke="#3D6F94" stroke-width="1.7" stroke-linecap="round" stroke-linejoin="round"/>
        <path d="M-38 1 C-24 1 -27 15 -15 19" fill="none" stroke="#3D6F94" stroke-width="1.7" stroke-linecap="round" stroke-linejoin="round"/>
        <path d="M38 5 C25 5 30 21 17 25" fill="none" stroke="#3D6F94" stroke-width="1.7" stroke-linecap="round" stroke-linejoin="round"/>
      </g>
      <g id="mini-well" transform="translate(714 756) scale(0.45)">
        <rect x="-38" y="-26" width="76" height="52" rx="7" fill="#FFFFFF" stroke="#5A9B6D" stroke-width="1.8"/>
        <circle cx="-25" cy="-14" r="4" fill="#ECF8F5" stroke="#C7D5DF" stroke-width="0.8"/>
        <circle cx="-12" cy="-14" r="4" fill="#ECF8F5" stroke="#C7D5DF" stroke-width="0.8"/>
        <circle cx="1" cy="-14" r="4" fill="#ECF8F5" stroke="#C7D5DF" stroke-width="0.8"/>
        <circle cx="14" cy="-14" r="4" fill="#ECF8F5" stroke="#C7D5DF" stroke-width="0.8"/>
        <circle cx="27" cy="-14" r="4" fill="#ECF8F5" stroke="#C7D5DF" stroke-width="0.8"/>
        <circle cx="-25" cy="0" r="4" fill="#FFF8E8" stroke="#C7D5DF" stroke-width="0.8"/>
        <circle cx="-12" cy="0" r="4" fill="#FFF8E8" stroke="#C7D5DF" stroke-width="0.8"/>
        <circle cx="1" cy="0" r="4" fill="#FFF8E8" stroke="#C7D5DF" stroke-width="0.8"/>
        <circle cx="14" cy="0" r="4" fill="#FFF8E8" stroke="#C7D5DF" stroke-width="0.8"/>
        <circle cx="27" cy="0" r="4" fill="#FFF8E8" stroke="#C7D5DF" stroke-width="0.8"/>
        <circle cx="-25" cy="14" r="4" fill="#FFF2EE" stroke="#C7D5DF" stroke-width="0.8"/>
        <circle cx="-12" cy="14" r="4" fill="#FFF2EE" stroke="#C7D5DF" stroke-width="0.8"/>
        <circle cx="1" cy="14" r="4" fill="#FFF2EE" stroke="#C7D5DF" stroke-width="0.8"/>
        <circle cx="14" cy="14" r="4" fill="#FFF2EE" stroke="#C7D5DF" stroke-width="0.8"/>
        <circle cx="27" cy="14" r="4" fill="#FFF2EE" stroke="#C7D5DF" stroke-width="0.8"/>
      </g>
      <line x1="609" y1="756" x2="630" y2="756" stroke="#607487" stroke-width="1.3" stroke-linecap="round" marker-end="url(#arrowMuted)" id="gut-to-brain"/>
      <line x1="681" y1="756" x2="692" y2="756" stroke="#607487" stroke-width="1.3" stroke-linecap="round" marker-end="url(#arrowMuted)" id="brain-to-well"/>
    </g>
    <path d="M315 625 C290 610 285 610 275 610" fill="none" stroke="#E86F61" stroke-width="1.8" stroke-linecap="round" stroke-linejoin="round" marker-end="url(#arrowAD)" id="hub-to-diff"/>
    <path d="M330 710 C300 735 290 745 275 745" fill="none" stroke="#27988B" stroke-width="1.8" stroke-linecap="round" stroke-linejoin="round" marker-end="url(#arrowHC)" id="hub-to-source"/>
    <path d="M505 625 C525 610 532 610 541 610" fill="none" stroke="#5A9B6D" stroke-width="1.8" stroke-linecap="round" stroke-linejoin="round" marker-end="url(#arrowGreen)" id="hub-to-activity"/>
    <path d="M490 710 C520 735 530 745 541 745" fill="none" stroke="#3D6F94" stroke-width="1.8" stroke-linecap="round" stroke-linejoin="round" marker-end="url(#arrowMuted)" id="hub-to-gutbrain"/>
    <text x="410" y="815" class="small" text-anchor="middle" fill="#607487">Observed differences → source attribution → functional and experimental validation</text>
  </g>
  <g id="panel-ai">
    <rect x="820" y="480" width="740" height="350" rx="24" fill="url(#gradC)" stroke="#705AA7" stroke-width="1.8" filter="url(#shadow)"/>
    <circle cx="852" cy="512" r="18" fill="#705AA7" stroke="none" stroke-width="1.4"/>
    <text x="852" y="518" class="label" text-anchor="middle" fill="#FFFFFF" font-weight="700" font-size="15">C</text>
    <text x="882" y="519" class="panelTitle" text-anchor="start" fill="#16344D">Deep-learning inference</text>
    <line x1="844" y1="538" x2="1536" y2="538" stroke="#C7D5DF" stroke-width="1" stroke-linecap="round"/>
    <g id="ai-input">
      <rect x="850" y="555" width="170" height="220" rx="15" fill="#FFFFFF" stroke="#A895CB" stroke-width="1.3" filter="url(#shadow)"/>
      <text x="935" y="581" class="cardTitle" text-anchor="middle" fill="#16344D">Peptide input</text>
      <g id="peptide-tokens">
        <rect x="870" y="606" width="16" height="20" rx="4" fill="#FFF8E8" stroke="#C7D5DF" stroke-width="0.9"/>
        <text x="878" y="620" class="tiny" text-anchor="middle" fill="#16344D" font-weight="700">M</text>
        <rect x="889" y="606" width="16" height="20" rx="4" fill="#F4F0FA" stroke="#C7D5DF" stroke-width="0.9"/>
        <text x="897" y="620" class="tiny" text-anchor="middle" fill="#16344D" font-weight="700">K</text>
        <rect x="908" y="606" width="16" height="20" rx="4" fill="#ECF8F5" stroke="#C7D5DF" stroke-width="0.9"/>
        <text x="916" y="620" class="tiny" text-anchor="middle" fill="#16344D" font-weight="700">W</text>
        <rect x="927" y="606" width="16" height="20" rx="4" fill="#FFF8E8" stroke="#C7D5DF" stroke-width="0.9"/>
        <text x="935" y="620" class="tiny" text-anchor="middle" fill="#16344D" font-weight="700">L</text>
        <rect x="946" y="606" width="16" height="20" rx="4" fill="#F4F0FA" stroke="#C7D5DF" stroke-width="0.9"/>
        <text x="954" y="620" class="tiny" text-anchor="middle" fill="#16344D" font-weight="700">A</text>
        <rect x="965" y="606" width="16" height="20" rx="4" fill="#ECF8F5" stroke="#C7D5DF" stroke-width="0.9"/>
        <text x="973" y="620" class="tiny" text-anchor="middle" fill="#16344D" font-weight="700">F</text>
        <rect x="984" y="606" width="16" height="20" rx="4" fill="#FFF8E8" stroke="#C7D5DF" stroke-width="0.9"/>
        <text x="992" y="620" class="tiny" text-anchor="middle" fill="#16344D" font-weight="700">R</text>
      </g>
      <text x="935" y="650" class="small" text-anchor="middle" fill="#607487">Protein-LM embedding</text>
      <g id="embedding-grid">
        <rect x="889" y="668" width="11" height="11" rx="2" fill="#3D6F94" stroke="none" stroke-width="1.4"/>
        <rect x="902" y="668" width="11" height="11" rx="2" fill="#82ACCA" stroke="none" stroke-width="1.4"/>
        <rect x="915" y="668" width="11" height="11" rx="2" fill="#705AA7" stroke="none" stroke-width="1.4"/>
        <rect x="928" y="668" width="11" height="11" rx="2" fill="#A895CB" stroke="none" stroke-width="1.4"/>
        <rect x="941" y="668" width="11" height="11" rx="2" fill="#27988B" stroke="none" stroke-width="1.4"/>
        <rect x="954" y="668" width="11" height="11" rx="2" fill="#F0CD79" stroke="none" stroke-width="1.4"/>
        <rect x="967" y="668" width="11" height="11" rx="2" fill="#3D6F94" stroke="none" stroke-width="1.4"/>
        <rect x="889" y="681" width="11" height="11" rx="2" fill="#A895CB" stroke="none" stroke-width="1.4"/>
        <rect x="902" y="681" width="11" height="11" rx="2" fill="#27988B" stroke="none" stroke-width="1.4"/>
        <rect x="915" y="681" width="11" height="11" rx="2" fill="#F0CD79" stroke="none" stroke-width="1.4"/>
        <rect x="928" y="681" width="11" height="11" rx="2" fill="#3D6F94" stroke="none" stroke-width="1.4"/>
        <rect x="941" y="681" width="11" height="11" rx="2" fill="#82ACCA" stroke="none" stroke-width="1.4"/>
        <rect x="954" y="681" width="11" height="11" rx="2" fill="#705AA7" stroke="none" stroke-width="1.4"/>
        <rect x="967" y="681" width="11" height="11" rx="2" fill="#A895CB" stroke="none" stroke-width="1.4"/>
        <rect x="889" y="694" width="11" height="11" rx="2" fill="#3D6F94" stroke="none" stroke-width="1.4"/>
        <rect x="902" y="694" width="11" height="11" rx="2" fill="#82ACCA" stroke="none" stroke-width="1.4"/>
        <rect x="915" y="694" width="11" height="11" rx="2" fill="#705AA7" stroke="none" stroke-width="1.4"/>
        <rect x="928" y="694" width="11" height="11" rx="2" fill="#A895CB" stroke="none" stroke-width="1.4"/>
        <rect x="941" y="694" width="11" height="11" rx="2" fill="#27988B" stroke="none" stroke-width="1.4"/>
        <rect x="954" y="694" width="11" height="11" rx="2" fill="#F0CD79" stroke="none" stroke-width="1.4"/>
        <rect x="967" y="694" width="11" height="11" rx="2" fill="#3D6F94" stroke="none" stroke-width="1.4"/>
        <rect x="889" y="707" width="11" height="11" rx="2" fill="#A895CB" stroke="none" stroke-width="1.4"/>
        <rect x="902" y="707" width="11" height="11" rx="2" fill="#27988B" stroke="none" stroke-width="1.4"/>
        <rect x="915" y="707" width="11" height="11" rx="2" fill="#F0CD79" stroke="none" stroke-width="1.4"/>
        <rect x="928" y="707" width="11" height="11" rx="2" fill="#3D6F94" stroke="none" stroke-width="1.4"/>
        <rect x="941" y="707" width="11" height="11" rx="2" fill="#82ACCA" stroke="none" stroke-width="1.4"/>
        <rect x="954" y="707" width="11" height="11" rx="2" fill="#705AA7" stroke="none" stroke-width="1.4"/>
        <rect x="967" y="707" width="11" height="11" rx="2" fill="#A895CB" stroke="none" stroke-width="1.4"/>
      </g>
      <text x="935" y="746" class="small" text-anchor="middle" fill="#607487">Sequence representation</text>
    </g>
    <g id="ai-model">
      <rect x="1040" y="555" width="300" height="220" rx="15" fill="#FFFFFF" stroke="#A895CB" stroke-width="1.3" filter="url(#shadow)"/>
      <text x="1190" y="581" class="cardTitle" text-anchor="middle" fill="#16344D">Interpretable ensemble</text>
      <g id="protein-lm">
        <rect x="1080" y="600" width="150" height="26" rx="13.0" fill="#705AA7" stroke="none" stroke-width="1.4"/>
        <text x="1155.0" y="617.0" class="small" text-anchor="middle" fill="#FFFFFF" font-weight="700">Protein language model</text>
      </g>
      <rect x="1080" y="645" width="125" height="38" rx="9" fill="#EEF5FA" stroke="#3D6F94" stroke-width="1.4"/>
      <text x="1142" y="669" class="label" text-anchor="middle" fill="#16344D">CNN branch</text>
      <rect x="1080" y="704" width="125" height="38" rx="9" fill="#F4F0FA" stroke="#705AA7" stroke-width="1.4"/>
      <text x="1142" y="728" class="label" text-anchor="middle" fill="#16344D">Transformer</text>
      <circle cx="1282" cy="693" r="30" fill="#F4F0FA" stroke="#705AA7" stroke-width="2"/>
      <text x="1282" y="689" class="small" text-anchor="middle" fill="#607487">Attention</text>
      <text x="1282" y="705" class="small" text-anchor="middle" fill="#607487">fusion</text>
      <path d="M1206 664 C1230 664 1240 682 1252 688" fill="none" stroke="#3D6F94" stroke-width="1.8" stroke-linecap="round" stroke-linejoin="round" marker-end="url(#arrowMuted)" id="cnn-fusion"/>
      <path d="M1206 723 C1230 723 1240 704 1252 698" fill="none" stroke="#705AA7" stroke-width="1.8" stroke-linecap="round" stroke-linejoin="round" marker-end="url(#arrowMuted)" id="transformer-fusion"/>
    </g>
    <g id="ai-output">
      <rect x="1360" y="555" width="170" height="220" rx="15" fill="#FFFFFF" stroke="#A895CB" stroke-width="1.3" filter="url(#shadow)"/>
      <text x="1445" y="581" class="cardTitle" text-anchor="middle" fill="#16344D">Calibrated outputs</text>
      <g id="amp-gauge">
        <path d="M1397 659 A48 48 0 0 1 1493 659" fill="none" stroke="#C7D5DF" stroke-width="14" stroke-linecap="round" stroke-linejoin="round"/>
        <path d="M1397 659 A48 48 0 0 1 1453 613" fill="none" stroke="#705AA7" stroke-width="14" stroke-linecap="round" stroke-linejoin="round"/>
        <line x1="1445" y1="659" x2="1475" y2="627" stroke="#16344D" stroke-width="3" stroke-linecap="round"/>
        <circle cx="1445" cy="659" r="5" fill="#16344D" stroke="none" stroke-width="1.4"/>
      </g>
      <text x="1445" y="690" class="label" text-anchor="middle" fill="#16344D">AMP probability</text>
      <text x="1380" y="715" class="tiny" text-anchor="start" fill="#607487">Activity</text>
      <rect x="1440" y="706" width="76" height="8" rx="4" fill="#D7A338" stroke="none" stroke-width="1.4"/>
      <text x="1380" y="732" class="tiny" text-anchor="start" fill="#607487">Toxicity</text>
      <rect x="1440" y="723" width="54" height="8" rx="4" fill="#5A9B6D" stroke="none" stroke-width="1.4"/>
      <text x="1380" y="749" class="tiny" text-anchor="start" fill="#607487">Attribution</text>
      <rect x="1440" y="740" width="64" height="8" rx="4" fill="#705AA7" stroke="none" stroke-width="1.4"/>
    </g>
    <line x1="1022" y1="665" x2="1036" y2="665" stroke="#705AA7" stroke-width="1.8" stroke-linecap="round" marker-end="url(#arrow)" id="input-to-model"/>
    <line x1="1342" y1="665" x2="1356" y2="665" stroke="#705AA7" stroke-width="1.8" stroke-linecap="round" marker-end="url(#arrow)" id="model-to-output"/>
    <text x="1190" y="808" class="small" text-anchor="middle" fill="#607487">Homology-aware split • probability calibration • feature attribution</text>
  </g>
  <line x1="782" y1="285" x2="816" y2="285" stroke="#16344D" stroke-width="2.4" stroke-linecap="round" marker-end="url(#arrow)" id="flow-A-B"/>
  <line x1="1190" y1="448" x2="1190" y2="476" stroke="#705AA7" stroke-width="2.4" stroke-linecap="round" marker-end="url(#arrow)" id="flow-B-C"/>
  <line x1="818" y1="655" x2="784" y2="655" stroke="#5A9B6D" stroke-width="2.4" stroke-linecap="round" marker-end="url(#arrowGreen)" id="flow-C-D"/>
  <line x1="410" y1="478" x2="410" y2="449" stroke="#D7A338" stroke-width="2.4" stroke-linecap="round" marker-end="url(#arrow)" id="flow-D-A"/>
</svg>
