<?xml version="1.0" encoding="UTF-8" standalone="no"?>
<!-- Creator: CorelDRAW --><svg height="400" id="svg2" inkscape:version="0.43" sodipodi:docbase="C:\LAMigos\Lagosta\ClipArt" sodipodi:docname="falcon_tube.svg" sodipodi:version="0.32" space="preserve" style="shape-rendering:geometricPrecision; text-rendering:geometricPrecision; image-rendering:optimizeQuality; fill-rule:evenodd" version="1.0" viewBox="0 0 8000 11314" width="130" xmlns="http://www.w3.org/2000/svg" xmlns:cc="http://web.resource.org/cc/" xmlns:dc="http://purl.org/dc/elements/1.1/" xmlns:inkscape="http://www.inkscape.org/namespaces/inkscape" xmlns:rdf="http://www.w3.org/1999/02/22-rdf-syntax-ns#" xmlns:sodipodi="http://inkscape.sourceforge.net/DTD/sodipodi-0.dtd" xmlns:svg="http://www.w3.org/2000/svg" xmlns:xlink="http://www.w3.org/1999/xlink">
  <metadata>
    <rdf:RDF xmlns:cc="http://web.resource.org/cc/" xmlns:dc="http://purl.org/dc/elements/1.1/" xmlns:rdf="http://www.w3.org/1999/02/22-rdf-syntax-ns#">
      <cc:Work rdf:about="">
        <dc:title>Falcon tube</dc:title>
        <dc:description></dc:description>
        <dc:subject>
          <rdf:Bag>
            <rdf:li>laboratory</rdf:li>
            <rdf:li>science</rdf:li>
          </rdf:Bag>
        </dc:subject>
        <dc:publisher>
          <cc:Agent rdf:about="http://www.openclipart.org/">
            <dc:title>Open Clip Art Library</dc:title>
          </cc:Agent>
        </dc:publisher>
        <dc:creator>
          <cc:Agent>
            <dc:title>Carlos Eduardo Amancio</dc:title>
          </cc:Agent>
        </dc:creator>
        <dc:rights>
          <cc:Agent>
            <dc:title>Carlos Eduardo Amancio</dc:title>
          </cc:Agent>
        </dc:rights>
        <dc:date>2006</dc:date>
        <dc:format>image/svg+xml</dc:format>
        <dc:type rdf:resource="http://purl.org/dc/dcmitype/StillImage"/>
        <cc:license rdf:resource="http://web.resource.org/cc/PublicDomain"/>
        <dc:language>en</dc:language>
      </cc:Work>
      <cc:License rdf:about="http://web.resource.org/cc/PublicDomain">
        <cc:permits rdf:resource="http://web.resource.org/cc/Reproduction"/>
        <cc:permits rdf:resource="http://web.resource.org/cc/Distribution"/>
        <cc:permits rdf:resource="http://web.resource.org/cc/DerivativeWorks"/>
      </cc:License>
    </rdf:RDF>
  </metadata>
  <sodipodi:namedview bordercolor="#666666" borderopacity="1.0" id="base" inkscape:current-layer="svg2" inkscape:cx="84.366225" inkscape:cy="220.62679" inkscape:pageopacity="0.0" inkscape:pageshadow="2" inkscape:window-height="553" inkscape:window-width="800" inkscape:window-x="-4" inkscape:window-y="-4" inkscape:zoom="0.99696152" pagecolor="#ffffff"/>
  <defs id="defs4">
    <linearGradient gradientUnits="userSpaceOnUse" id="linearGradient11351" x1="3633" x2="4535" y1="7854" y2="7854">
      <stop id="stop11353" offset="0" style="stop-color:#c8c8c8;stop-opacity:0.39215687;"/>
      <stop id="stop11355" offset="0.301961" style="stop-color:#c8c8c8;stop-opacity:0.39215687;"/>
      <stop id="stop11357" offset="0.60000002" style="stop-color:#ffffff;stop-opacity:0.39215687;"/>
      <stop id="stop11359" offset="0.90196103" style="stop-color:#c8c8c8;stop-opacity:0.39215687;"/>
      <stop id="stop11361" offset="1" style="stop-color:#c8c8c8;stop-opacity:0.39215687;"/>
    </linearGradient>
    <linearGradient id="linearGradient6266">
      <stop id="stop6268" offset="0" style="stop-color:#f0f0f0;stop-opacity:1;"/>
      <stop id="stop6270" offset="1" style="stop-color:#ffffff;stop-opacity:0;"/>
    </linearGradient>
    <linearGradient gradientTransform="matrix(-2.454171,0,0,2.175657,4914.513,-9446.003)" gradientUnits="userSpaceOnUse" id="linearGradient6272" inkscape:collect="always" x1="-568.95056" x2="2575.0325" xlink:href="#linearGradient6266" y1="10397.805" y2="8346.8379"/>
    <linearGradient id="linearGradient9787">
      <stop id="stop9789" offset="0" style="stop-color:#000000;stop-opacity:0.23529412;"/>
      <stop id="stop9791" offset="1" style="stop-color:#000000;stop-opacity:0;"/>
    </linearGradient>
    <linearGradient gradientTransform="matrix(2.175657,0,0,2.175657,2995.791,-10399.05)" gradientUnits="userSpaceOnUse" id="linearGradient9793" inkscape:collect="always" x1="4552.6172" x2="3308.1187" xlink:href="#linearGradient9787" y1="8326.6006" y2="8510.6709"/>
    <style id="style6" type="text/css">
   
    .str0 {stroke:#C2C1C1;stroke-width:19}
    .str1 {stroke:#1F1A17;stroke-width:27;stroke-linecap:round;stroke-linejoin:round}
    .fil1 {fill:none}
    .fil3 {fill:#1F1A17}
    .fil4 {fill:#BB825B}
    .fil0 {fill:url(#id0)}
    .fil2 {fill:url(#id1)}
   
  </style>
    <linearGradient gradientUnits="userSpaceOnUse" id="id0" x1="4084" x2="4084" y1="8375" y2="10494">
      <stop id="stop9" offset="0" style="stop-color:#75C5F0"/>
      <stop id="stop11" offset="0.74901998" style="stop-color:#89cbff;stop-opacity:0.26804122;"/>
      <stop id="stop13" offset="1" style="stop-color:#ffffff;stop-opacity:0;"/>
    </linearGradient>
    <linearGradient gradientUnits="userSpaceOnUse" id="id1" x1="3633" x2="4535" y1="7854" y2="7854">
      <stop id="stop16" offset="0" style="stop-color:#E77844"/>
      <stop id="stop18" offset="0.301961" style="stop-color:#E77844"/>
      <stop id="stop20" offset="0.6" style="stop-color:#FEEEE4"/>
      <stop id="stop22" offset="0.901961" style="stop-color:#E77844"/>
      <stop id="stop24" offset="1" style="stop-color:#E77844"/>
    </linearGradient>
    <linearGradient gradientTransform="matrix(7.951372,0,0,7.951372,-28534.12,-66860.56)" gradientUnits="userSpaceOnUse" id="linearGradient1331" inkscape:collect="always" x1="4084" x2="4084" xlink:href="#id0" y1="8375" y2="10494"/>
    <linearGradient gradientUnits="userSpaceOnUse" id="linearGradient3990" inkscape:collect="always" x1="3633" x2="4535" xlink:href="#id1" y1="7854" y2="7854"/>
    <linearGradient gradientTransform="matrix(7.951372,0,0,7.951372,-28534.12,-66860.56)" gradientUnits="userSpaceOnUse" id="linearGradient3994" inkscape:collect="always" x1="3633" x2="4535" xlink:href="#id1" y1="7854" y2="7854"/>
    <linearGradient gradientTransform="matrix(7.951372,0,0,7.951372,-28534.12,-66860.56)" gradientUnits="userSpaceOnUse" id="linearGradient4005" inkscape:collect="always" x1="4084" x2="4084" xlink:href="#id0" y1="8375" y2="10494"/>
    <linearGradient gradientTransform="matrix(7.951372,0,0,7.951372,-28534.12,-66860.56)" gradientUnits="userSpaceOnUse" id="linearGradient4007" inkscape:collect="always" x1="3633" x2="4535" xlink:href="#id1" y1="7854" y2="7854"/>
    <linearGradient gradientTransform="matrix(7.951372,0,0,10.10153,-28473.41,-83779.75)" gradientUnits="userSpaceOnUse" id="linearGradient17815" inkscape:collect="always" x1="3633" x2="4535" xlink:href="#id1" y1="7854" y2="7854"/>
    <linearGradient gradientTransform="matrix(7.951372,0,0,7.951372,-28473.41,-66461.2)" gradientUnits="userSpaceOnUse" id="linearGradient17820" inkscape:collect="always" x1="4084" x2="4084" xlink:href="#id0" y1="8375" y2="10494"/>
    <linearGradient gradientTransform="translate(-7.692308e-5,492.3076)" gradientUnits="userSpaceOnUse" id="linearGradient11349" inkscape:collect="always" x1="863.16821" x2="7136.8315" xlink:href="#linearGradient11351" y1="6578.8022" y2="6578.8022"/>
  </defs>
  <path class="fil0" d="M 7029.4727,14507.609 L 4564.5474,16980.486 L 3435.4525,16980.486 L 970.52725,14507.609 L 970.52725,1475.3096 L 7029.4727,1475.3096 L 7029.4727,14507.609 z " id="path27" style="fill:url(#linearGradient17820)"/>
  <path class="fil1 str1" d="M 7029.4882,14507.609 C 7029.4882,14849.518 5494.8734,16718.09 4564.5629,17600.693 C 4278.3135,17863.088 3721.7174,17878.991 3427.5167,17600.693 C 2489.2548,16726.042 962.59138,14849.518 970.54268,14507.609 L 970.54268,-3661.2767 L 7029.4882,-3661.2767 L 7029.4882,14507.609 z " id="path31" style="fill:url(#linearGradient11349);fill-opacity:1;stroke:#1f1a17;stroke-width:214.68704224;stroke-linecap:round;stroke-linejoin:round"/>
  <path class="fil2" d="M 413.93124,-2553.3597 L 7586.0687,-2553.3597 L 7586.0687,-6341.4334 L 413.93124,-6341.4334 L 413.93124,-2553.3597 z " id="path35" style="fill:url(#linearGradient17815)"/>
  <g id="g39" style="opacity:0.8;fill:#6c3700;fill-opacity:0.40201003" transform="matrix(8.097289,0,0,10.10153,-29069.33,-83779.75)">
    <path class="fil4" d="M 3682,7680 L 3682,8028 L 3663,8028 L 3663,7680 L 3682,7680 z M 3711,7680 L 3711,8028 L 3692,8028 L 3692,7680 L 3711,7680 z M 3750,7680 L 3750,8028 L 3731,8028 L 3731,7680 L 3750,7680 z M 3799,7680 L 3799,8028 L 3780,8028 L 3780,7680 L 3799,7680 z M 3858,7680 L 3858,8028 L 3839,8028 L 3839,7680 L 3858,7680 z M 3927,7680 L 3927,8028 L 3908,8028 L 3908,7680 L 3927,7680 z M 4005,7680 L 4005,8028 L 3986,8028 L 3986,7680 L 4005,7680 z M 4093,7680 L 4093,8028 L 4074,8028 L 4074,7680 L 4093,7680 z M 4505,7680 L 4505,8028 L 4486,8028 L 4486,7680 L 4505,7680 z M 4476,7680 L 4476,8028 L 4457,8028 L 4457,7680 L 4476,7680 z M 4437,7680 L 4437,8028 L 4418,8028 L 4418,7680 L 4437,7680 z M 4388,7680 L 4388,8028 L 4369,8028 L 4369,7680 L 4388,7680 z M 4329,7680 L 4329,8028 L 4310,8028 L 4310,7680 L 4329,7680 z M 4260,7680 L 4260,8028 L 4241,8028 L 4241,7680 L 4260,7680 z M 4182,7680 L 4182,8028 L 4163,8028 L 4163,7680 L 4182,7680 z " id="path41" sodipodi:nodetypes="ccccccccccccccccccccccccccccccccccccccccccccccccccccccccccccccccccccccccccc" style="fill:#6c3700;fill-opacity:0.40201003"/>
  </g>
  <path d="M 306.42819,-6476.3884 L 306.42819,-2416.5097 L 7693.5718,-2416.5097 L 7693.5718,-6476.3884 L 306.42819,-6476.3884 z M 520.71392,-6205.9719 L 7483.5718,-6205.9719 L 7483.5718,-2686.9262 L 520.71392,-2686.9262 L 520.71392,-6205.9719 z " id="rect2206" style="fill:#000000;fill-opacity:1;stroke:none"/>
  <path d="M 6299.5542,-370.05249 C 6849.1432,1332.6918 6972.2998,13384.954 6410.9975,14631.478 C 5867.9811,15837.393 4961.2291,16844.654 4386.01,17222.408 C 4086.2623,17419.256 5007.8705,16085.691 5554.622,14780.07 C 6390.5755,12783.846 6165.0096,5464.3869 6189.703,3766.0969 C 6211.7845,2247.4452 6026.4086,-1216.3166 6299.5542,-370.05249 z " id="path4518" sodipodi:nodetypes="csssss" style="opacity:0.7;fill:url(#linearGradient6272);fill-opacity:1;fill-rule:evenodd;stroke:#000000;stroke-width:0;stroke-linecap:butt;stroke-linejoin:miter;stroke-miterlimit:4;stroke-dasharray:none;stroke-opacity:1"/>
  <path class="fil1 str0" d="M 1081.6124,-67.256527 L 3164.8719,-67.256527 M 1081.6124,1475.3096 L 3164.8719,1475.3096 M 1081.6124,3009.9244 L 3164.8719,3009.9244 M 1081.6124,4552.4905 L 3164.8719,4552.4905 M 1081.6124,6095.0567 L 3164.8719,6095.0567 M 1081.6124,7629.6715 L 3164.8719,7629.6715 M 1081.6124,9172.2377 L 3164.8719,9172.2377 M 1081.6124,10706.853 L 3164.8719,10706.853 M 1081.6124,12249.419 L 3164.8719,12249.419 M 1081.6124,13784.034 L 3164.8719,13784.034 M 1081.6124,-1601.8714 L 3164.8719,-1601.8714" id="path29" style="fill:none;stroke:#c2c1c1;stroke-width:151.07606506"/>
</svg>
